<svg width="24" height="24" viewBox="0 0 24 24" fill="none" xmlns="http://www.w3.org/2000/svg">
<path d="M16.6966 3.43061C16.6618 3.40965 16.6238 3.39462 16.5841 3.38612C15.8814 2.55799 15.0066 1.89309 14.0206 1.4378C13.0345 0.982514 11.9611 0.747796 10.875 0.750016C6.73945 0.750016 3.375 4.11447 3.375 8.25002C3.375 12.3856 6.73945 15.75 10.875 15.75C12.5282 15.7489 14.1348 15.2027 15.4461 14.1959C15.7451 14.3608 16.0583 14.4988 16.3817 14.6084C16.4175 14.6195 16.4548 14.6251 16.4923 14.6251H16.5057C16.5432 14.6251 16.5805 14.6194 16.6163 14.6084C16.6693 14.5921 17.9291 14.1948 19.194 13.0254C20.3591 11.9481 21.748 9.985 21.748 6.75002C21.748 6.68599 21.7316 6.62303 21.7004 6.56713C21.6692 6.51124 21.6241 6.46427 21.5696 6.4307L16.6966 3.43061ZM11.1166 1.5047C12.0142 1.5349 12.8967 1.74486 13.7118 2.12215C14.5268 2.49943 15.2579 3.03638 15.8618 3.70122L11.625 6.30939V4.87502C11.625 4.78832 11.595 4.70431 11.54 4.63726C11.485 4.57022 11.4086 4.52428 11.3235 4.50728L9.90792 4.22416L11.1166 1.5047ZM6.6315 13.4953L7.725 12.675C7.79526 12.6223 7.84479 12.5466 7.86496 12.4612C7.88514 12.3757 7.87467 12.2858 7.83539 12.2073L7.1378 10.8121L7.35741 9.27456L7.52695 9.52886L7.8862 10.9659C7.89814 11.0136 7.91938 11.0586 7.9487 11.0982C7.97801 11.1377 8.01483 11.1711 8.05706 11.1965L9.77269 12.2259L10.0756 14.9524C8.81285 14.8024 7.61855 14.2971 6.6315 13.4953ZM10.875 15C10.8618 15 10.8487 14.9996 10.8356 14.9995L10.4977 11.9586C10.4913 11.9012 10.4718 11.8461 10.4406 11.7975C10.4094 11.7489 10.3674 11.7082 10.3179 11.6785L8.57611 10.6334L8.23861 9.28408C8.22828 9.24234 8.21084 9.2027 8.18705 9.16689L7.43705 8.04189C7.39492 7.9787 7.33461 7.9298 7.26408 7.90164C7.19355 7.87348 7.11614 7.86739 7.04208 7.88419C6.96802 7.90099 6.9008 7.93987 6.84933 7.99571C6.79785 8.05154 6.76454 8.12168 6.7538 8.19686L6.3788 10.8219C6.36805 10.8974 6.38055 10.9744 6.41466 11.0426L7.02464 12.2627L6.06609 12.9817C4.82143 11.7215 4.12394 10.0213 4.125 8.25002C4.125 4.72638 6.83906 1.82519 10.2864 1.52598L9.0323 4.34786C9.00946 4.39924 8.99847 4.4551 9.00014 4.5113C9.00181 4.5675 9.01609 4.62261 9.04194 4.67254C9.06778 4.72247 9.10452 4.76596 9.14945 4.79977C9.19437 4.83359 9.24632 4.85687 9.30145 4.86789L10.875 5.18247V6.75002C10.875 6.82873 10.8998 6.90545 10.9458 6.96931C10.9918 7.03316 11.0568 7.08091 11.1315 7.1058L11.258 7.14798C11.3665 10.1466 12.6877 11.993 13.804 13.0253C14.1003 13.2991 14.417 13.55 14.7513 13.7759C13.6153 14.5718 12.262 14.9991 10.875 15ZM18.7093 12.4519C18.0672 13.0545 17.3171 13.5306 16.4985 13.855C15.69 13.5358 14.9487 13.0676 14.3132 12.4746C12.8233 11.0971 12.0463 9.24194 12.002 6.95819L16.499 4.18966L20.996 6.95819C20.952 9.22895 20.1832 11.0763 18.7093 12.4519Z" fill="#0B5C84"/>
<path d="M22.4125 15.7619C22.1572 15.6055 21.8658 15.5181 21.5666 15.5083C21.2674 15.4984 20.9708 15.5664 20.7058 15.7057L18.2003 17.0085C18.0941 16.7817 17.9435 16.5784 17.7575 16.4106C17.5714 16.2428 17.3537 16.114 17.1171 16.0317C16.8805 15.9493 16.6298 15.9152 16.3798 15.9313C16.1298 15.9473 15.8856 16.0132 15.6615 16.1252L11.963 17.9745L6.85313 16.5146C6.81959 16.505 6.78488 16.5002 6.75 16.5002H4.5V16.1252C4.5 16.0257 4.46049 15.9303 4.39017 15.86C4.31984 15.7897 4.22446 15.7502 4.125 15.7502H1.125C1.02554 15.7502 0.930161 15.7897 0.859835 15.86C0.789509 15.9303 0.75 16.0257 0.75 16.1252V21.3752C0.75 21.4746 0.789509 21.57 0.859835 21.6403C0.930161 21.7107 1.02554 21.7502 1.125 21.7502H4.125C4.22446 21.7502 4.31984 21.7107 4.39017 21.6403C4.46049 21.57 4.5 21.4746 4.5 21.3752V21.1106L12.6553 23.238C12.7486 23.2623 12.8476 23.2498 12.9319 23.203L23.0569 17.578C23.1154 17.5455 23.1641 17.498 23.1981 17.4404C23.2321 17.3827 23.25 17.3171 23.25 17.2502C23.2512 16.9508 23.1747 16.6563 23.0279 16.3954C22.8811 16.1345 22.669 15.9162 22.4125 15.7619ZM3.75 21.0002H1.5V16.5002H3.75V21.0002ZM12.6992 22.4744L4.5 20.3354V17.2502H6.6975L11.8969 18.7357C11.9871 18.7615 12.0837 18.7525 12.1676 18.7106L15.9968 16.796C16.1464 16.7193 16.3115 16.6778 16.4796 16.6747C16.6476 16.6717 16.8142 16.7071 16.9664 16.7783C17.2206 16.8933 17.423 17.0989 17.534 17.3549L13.327 19.5424C13.2388 19.5882 13.1723 19.6673 13.1424 19.7621C13.1124 19.857 13.1213 19.9599 13.1672 20.0481C13.2131 20.1364 13.2921 20.2028 13.387 20.2328C13.4818 20.2628 13.5847 20.2539 13.673 20.208L21.0516 16.3709C21.1869 16.3006 21.3366 16.2624 21.4891 16.2594C21.6416 16.2564 21.7927 16.2886 21.9307 16.3535C22.0687 16.4184 22.1899 16.5142 22.2848 16.6335C22.3798 16.7529 22.4459 16.8925 22.4781 17.0416L12.6992 22.4744Z" fill="#0B5C84"/>
<path d="M16.3028 5.19142L12.965 7.24628C12.9055 7.28291 12.8574 7.33544 12.8262 7.39793C12.795 7.46043 12.7818 7.53042 12.7882 7.59999C12.9468 9.32396 13.6002 10.7495 14.7302 11.837C15.2026 12.2903 15.741 12.6694 16.327 12.9614C16.3786 12.9869 16.4354 13.0002 16.493 13.0003C16.5507 13.0003 16.6075 12.9871 16.6592 12.9617C17.2477 12.6697 17.7885 12.2903 18.2633 11.8363C19.3977 10.7483 20.0535 9.32204 20.2122 7.59709C20.2186 7.52752 20.2055 7.45755 20.1742 7.39506C20.143 7.33257 20.0949 7.28005 20.0354 7.24342C19.2275 6.74584 17.8796 5.91779 16.6956 5.19113C16.6365 5.15487 16.5685 5.13569 16.4991 5.13574C16.4298 5.13579 16.3618 5.15506 16.3028 5.19142ZM19.4407 7.75787C19.2645 9.19449 18.6944 10.3836 17.7442 11.2948C17.3701 11.6525 16.9495 11.958 16.4937 12.2032C16.0404 11.9582 15.6221 11.6532 15.2503 11.2965C14.3038 10.3856 13.7356 9.19698 13.5597 7.76078L16.4997 5.95079C17.5384 6.58857 18.6711 7.28443 19.4407 7.75787Z" fill="#0B5C84"/>
<path d="M15.1098 9.64018L15.8598 10.3902C15.8947 10.425 15.936 10.4526 15.9815 10.4715C16.027 10.4903 16.0758 10.5 16.125 10.5C16.1743 10.5 16.223 10.4903 16.2685 10.4715C16.314 10.4526 16.3554 10.425 16.3902 10.3902L18.2652 8.51518C18.3355 8.44485 18.375 8.34947 18.375 8.25001C18.375 8.15055 18.3355 8.05517 18.2652 7.98484C18.1949 7.91451 18.0995 7.875 18 7.875C17.9006 7.875 17.8052 7.91451 17.7348 7.98484L16.125 9.59471L15.6402 9.10984C15.6054 9.07501 15.564 9.04739 15.5185 9.02855C15.473 9.0097 15.4243 9 15.375 9C15.3258 9 15.277 9.0097 15.2315 9.02855C15.186 9.04739 15.1447 9.07501 15.1098 9.10984C15.075 9.14466 15.0474 9.186 15.0285 9.2315C15.0097 9.277 15 9.32576 15 9.37501C15 9.42426 15.0097 9.47302 15.0285 9.51852C15.0474 9.56402 15.075 9.60536 15.1098 9.64018Z" fill="#0B5C84"/>
</svg>
