<svg width="24" height="24" viewBox="0 0 24 24" fill="none" xmlns="http://www.w3.org/2000/svg">
<path d="M13.5 6.75C13.7225 6.75 13.94 6.68402 14.125 6.5604C14.31 6.43678 14.4542 6.26108 14.5394 6.05552C14.6245 5.84995 14.6468 5.62375 14.6034 5.40552C14.56 5.18729 14.4528 4.98684 14.2955 4.8295C14.1382 4.67217 13.9377 4.56503 13.7195 4.52162C13.5013 4.47821 13.2751 4.50049 13.0695 4.58564C12.8639 4.67078 12.6882 4.81498 12.5646 4.99998C12.441 5.18499 12.375 5.4025 12.375 5.625C12.3753 5.92326 12.494 6.20921 12.7049 6.42011C12.9158 6.63101 13.2017 6.74965 13.5 6.75ZM13.5 5.25C13.5742 5.25 13.6467 5.27199 13.7083 5.3132C13.77 5.3544 13.8181 5.41297 13.8465 5.48149C13.8748 5.55001 13.8823 5.62541 13.8678 5.69816C13.8533 5.7709 13.8176 5.83772 13.7652 5.89016C13.7127 5.94261 13.6459 5.97832 13.5732 5.99279C13.5004 6.00726 13.425 5.99984 13.3565 5.97145C13.288 5.94307 13.2294 5.89501 13.1882 5.83334C13.147 5.77167 13.125 5.69917 13.125 5.625C13.1251 5.52558 13.1647 5.43026 13.235 5.35996C13.3053 5.28966 13.4006 5.25011 13.5 5.25Z" fill="#0B5C84"/>
<path d="M22.8749 0.75H13.1249C13.0254 0.75 12.93 0.789509 12.8597 0.859835C12.7894 0.930161 12.7499 1.02554 12.7499 1.125V2.25C12.6504 2.25 12.555 2.28951 12.4847 2.35984C12.4144 2.43016 12.3749 2.52554 12.3749 2.625V2.8447L12.265 2.73483C12.2302 2.7 12.1889 2.67238 12.1434 2.65353C12.0979 2.63469 12.0491 2.62499 11.9999 2.62499C11.9506 2.62499 11.9018 2.63469 11.8564 2.65353C11.8109 2.67238 11.7695 2.7 11.7347 2.73483L10.6097 3.85983C10.5749 3.89465 10.5472 3.93599 10.5284 3.98149C10.5095 4.02699 10.4998 4.07575 10.4998 4.125C10.4998 4.17425 10.5095 4.22301 10.5284 4.26851C10.5472 4.31401 10.5749 4.35535 10.6097 4.39017L10.7196 4.5H10.4999C10.4004 4.5 10.305 4.53951 10.2347 4.60984C10.1644 4.68016 10.1249 4.77554 10.1249 4.875V6H6.37486C5.55595 6 4.79663 6.68527 4.53019 7.35183L3.24108 10.125H1.87486C1.57649 10.1225 1.28933 10.2385 1.07656 10.4477C0.863782 10.6569 0.742818 10.942 0.740275 11.2404C0.737733 11.5388 0.853821 11.8259 1.063 12.0387C1.27218 12.2515 1.55732 12.3725 1.85569 12.375C1.13644 13.1136 0.749861 14.7417 0.749861 15.375V22.125C0.750209 22.4233 0.868847 22.7092 1.07975 22.9201C1.29065 23.131 1.5766 23.2497 1.87486 23.25H3.37486C3.67312 23.2497 3.95907 23.131 4.16997 22.9201C4.38088 22.7092 4.49951 22.4233 4.49986 22.125V21.75H17.9999V22.125C18.0002 22.4233 18.1188 22.7092 18.3298 22.9201C18.5407 23.131 18.8266 23.2497 19.1249 23.25H20.6249C20.9231 23.2497 21.2091 23.131 21.42 22.9201C21.6309 22.7092 21.7495 22.4233 21.7499 22.125V15.375C21.7499 15.084 21.6808 14.6741 21.5652 14.25H22.8749C22.9743 14.25 23.0697 14.2105 23.14 14.1402C23.2104 14.0698 23.2499 13.9745 23.2499 13.875V1.125C23.2499 1.02554 23.2104 0.930161 23.14 0.859835C23.0697 0.789509 22.9743 0.75 22.8749 0.75ZM10.8749 5.25H11.6249C11.699 5.25 11.7715 5.22801 11.8332 5.18681C11.8949 5.1456 11.9429 5.08703 11.9713 5.01851C11.9997 4.94998 12.0071 4.87458 11.9927 4.80184C11.9782 4.72909 11.9425 4.66227 11.89 4.60983L11.4052 4.125L11.9999 3.5303L12.4847 4.01517C12.5371 4.06762 12.604 4.10334 12.6767 4.11781C12.7494 4.13228 12.8248 4.12485 12.8934 4.09647C12.9619 4.06808 13.0205 4.02002 13.0617 3.95835C13.1029 3.89668 13.1249 3.82417 13.1249 3.75V3H13.8749V3.75C13.8749 3.82417 13.8969 3.89668 13.9381 3.95835C13.9793 4.02002 14.0378 4.06808 14.1064 4.09647C14.1749 4.12485 14.2503 4.13228 14.323 4.11781C14.3958 4.10334 14.4626 4.06762 14.515 4.01517L14.9999 3.5303L15.5946 4.125L15.1097 4.60983C15.0572 4.66227 15.0215 4.72909 15.0071 4.80184C14.9926 4.87458 15 4.94998 15.0284 5.01851C15.0568 5.08703 15.1048 5.1456 15.1665 5.18681C15.2282 5.22801 15.3007 5.25 15.3749 5.25H16.1249V6H15.3749C15.3007 6 15.2282 6.02199 15.1665 6.06319C15.1048 6.1044 15.0568 6.16297 15.0284 6.23149C15 6.30002 14.9926 6.37542 15.0071 6.44816C15.0215 6.52091 15.0572 6.58773 15.1097 6.64017L15.5946 7.125L14.9999 7.7197L14.515 7.23483C14.4626 7.18238 14.3958 7.14666 14.323 7.13219C14.2503 7.11772 14.1749 7.12515 14.1064 7.15353C14.0378 7.18192 13.9793 7.22998 13.9381 7.29165C13.8969 7.35332 13.8749 7.42583 13.8749 7.5V8.25H13.1249V7.5C13.1249 7.42583 13.1029 7.35332 13.0617 7.29165C13.0205 7.22998 12.9619 7.18192 12.8934 7.15353C12.8248 7.12515 12.7494 7.11772 12.6767 7.13219C12.604 7.14666 12.5371 7.18238 12.4847 7.23483L11.9999 7.7197L11.4052 7.125L11.89 6.64017C11.9425 6.58773 11.9782 6.52091 11.9927 6.44816C12.0071 6.37542 11.9997 6.30002 11.9713 6.23149C11.9429 6.16297 11.8949 6.1044 11.8332 6.06319C11.7715 6.02199 11.699 6 11.6249 6H10.8749V5.25ZM15.0156 17.625H12.6672C12.7215 17.5074 12.7497 17.3795 12.7499 17.25C12.7499 16.6192 12.091 16.125 11.2499 16.125C10.4087 16.125 9.74986 16.6192 9.74986 17.25C9.75001 17.3795 9.77822 17.5074 9.83255 17.625H7.48411C7.38873 16.5009 6.87516 15.4535 6.04487 14.6897C5.21459 13.9259 4.12801 13.5014 2.99986 13.5H2.00391C2.28085 12.9207 2.52356 12.7536 2.62135 12.75C2.6221 12.75 2.6228 12.75 2.6235 12.75H12.7499V13.875C12.7499 13.9745 12.7894 14.0698 12.8597 14.1402C12.93 14.2105 13.0254 14.25 13.1249 14.25H17.0155C16.4491 14.6252 15.975 15.1238 15.6287 15.7083C15.2823 16.2927 15.0728 16.948 15.0156 17.625ZM19.4999 14.25H20.7848C20.8617 14.4956 20.9215 14.7462 20.9638 15H19.4999C18.7695 15.001 18.0646 15.268 17.5169 15.7512C16.9692 16.2343 16.6162 16.9005 16.5241 17.625H15.7686C15.8628 16.7005 16.2963 15.8437 16.9855 15.2203C17.6747 14.5969 18.5706 14.2512 19.4999 14.25ZM11.9999 17.25C11.9999 17.4029 11.7077 17.625 11.2499 17.625C10.792 17.625 10.4999 17.4029 10.4999 17.25C10.4999 17.0971 10.792 16.875 11.2499 16.875C11.7077 16.875 11.9999 17.0971 11.9999 17.25ZM6.37486 6.75H10.7196L10.6097 6.85983C10.5749 6.89465 10.5472 6.93599 10.5284 6.98149C10.5095 7.02699 10.4998 7.07575 10.4998 7.125C10.4998 7.17425 10.5095 7.22301 10.5284 7.26851C10.5472 7.31401 10.5749 7.35535 10.6097 7.39017L10.7195 7.5H5.28905C5.51414 7.0875 5.98861 6.75 6.37486 6.75ZM4.93978 8.25H11.4695L11.7346 8.51517C11.7695 8.55 11.8108 8.57762 11.8563 8.59647C11.9018 8.61531 11.9506 8.62501 11.9998 8.62501C12.0491 8.62501 12.0978 8.61531 12.1433 8.59647C12.1888 8.57762 12.2302 8.55 12.265 8.51517L12.3749 8.4053V8.625C12.3749 8.72446 12.4144 8.81984 12.4847 8.89017C12.555 8.96049 12.6504 9 12.7499 9V12H3.19674L4.93978 8.25ZM1.49986 11.25C1.50001 11.1506 1.53957 11.0553 1.60986 10.985C1.68015 10.9147 1.77545 10.8751 1.87486 10.875H2.89242L2.54358 11.6254H1.87486C1.77538 11.6253 1.68002 11.5857 1.60971 11.5153C1.53941 11.4449 1.4999 11.3495 1.49986 11.25ZM1.71549 14.25H2.99986C3.92916 14.2512 4.825 14.5969 5.51419 15.2203C6.20338 15.8437 6.63696 16.7005 6.73111 17.625H5.97558C5.88348 16.9005 5.53057 16.2343 4.98287 15.7512C4.43517 15.268 3.73021 15.001 2.99986 15H1.53647C1.57918 14.7463 1.63899 14.4957 1.71549 14.25ZM1.49986 15.75H2.99986C3.53134 15.7507 4.04545 15.9393 4.45135 16.2824C4.85724 16.6255 5.1288 17.1011 5.21803 17.625H2.74988L1.49986 16.6875V15.75ZM3.74986 22.125C3.74975 22.2244 3.7102 22.3197 3.6399 22.39C3.5696 22.4603 3.47428 22.4999 3.37486 22.5H1.87486C1.77544 22.4999 1.68012 22.4603 1.60982 22.39C1.53952 22.3197 1.49997 22.2244 1.49986 22.125V20.7312C1.78081 21.0513 2.12685 21.3078 2.51487 21.4835C2.90288 21.6592 3.32392 21.7501 3.74986 21.75V22.125ZM8.62486 21H3.74986C3.40834 21 3.07132 20.922 2.76443 20.7722C2.45753 20.6223 2.18884 20.4045 1.97878 20.1352C2.18567 20.2113 2.40441 20.2502 2.62486 20.25H8.62486V21ZM13.1249 21H9.37486V19.875H13.1249V21ZM13.8749 21V20.25H19.8749C20.0953 20.2502 20.3141 20.2113 20.5209 20.1352C20.3109 20.4045 20.0422 20.6223 19.7353 20.7722C19.4284 20.922 19.0914 21 18.7499 21H13.8749ZM20.9999 22.125C20.9998 22.2244 20.9602 22.3197 20.8899 22.39C20.8196 22.4603 20.7243 22.4999 20.6249 22.5H19.1249C19.0254 22.4999 18.9301 22.4603 18.8598 22.39C18.7895 22.3197 18.75 22.2244 18.7499 22.125V21.75C19.1758 21.7501 19.5968 21.6592 19.9849 21.4835C20.3729 21.3078 20.7189 21.0513 20.9999 20.7312V22.125ZM20.9999 18.375C20.9995 18.6733 20.8809 18.9592 20.67 19.1701C20.4591 19.381 20.1731 19.4997 19.8749 19.5H13.8749C13.8749 19.4005 13.8354 19.3052 13.765 19.2348C13.6947 19.1645 13.5993 19.125 13.4999 19.125H8.99986C8.90041 19.125 8.80502 19.1645 8.7347 19.2348C8.66437 19.3052 8.62486 19.4005 8.62486 19.5H2.62486C2.3266 19.4997 2.04065 19.381 1.82975 19.1701C1.61885 18.9592 1.50021 18.6733 1.49986 18.375V17.625L2.39986 18.3C2.46477 18.3487 2.54372 18.375 2.62486 18.375H19.8749C19.956 18.375 20.035 18.3487 20.0999 18.3L20.9999 17.625V18.375ZM20.9999 16.6875L19.7498 17.625H17.2817C17.3709 17.1011 17.6425 16.6255 18.0484 16.2824C18.4543 15.9393 18.9684 15.7507 19.4999 15.75H20.9999V16.6875ZM22.4999 13.5H13.4999V9H14.2499C14.3493 9 14.4447 8.96049 14.515 8.89017C14.5854 8.81984 14.6249 8.72446 14.6249 8.625V8.4053L14.7347 8.51517C14.7695 8.55 14.8109 8.57762 14.8564 8.59647C14.9019 8.61531 14.9506 8.62501 14.9999 8.62501C15.0491 8.62501 15.0979 8.61531 15.1434 8.59647C15.1889 8.57762 15.2302 8.55 15.265 8.51517L16.39 7.39017C16.4249 7.35535 16.4525 7.31401 16.4713 7.26851C16.4902 7.22301 16.4999 7.17425 16.4999 7.125C16.4999 7.07575 16.4902 7.02699 16.4713 6.98149C16.4525 6.93599 16.4249 6.89465 16.39 6.85983L16.2802 6.75H16.4999C16.5993 6.75 16.6947 6.71049 16.765 6.64017C16.8354 6.56984 16.8749 6.47446 16.8749 6.375V4.875C16.8749 4.77554 16.8354 4.68016 16.765 4.60984C16.6947 4.53951 16.5993 4.5 16.4999 4.5H16.2802L16.39 4.39017C16.4249 4.35535 16.4525 4.31401 16.4713 4.26851C16.4902 4.22301 16.4999 4.17425 16.4999 4.125C16.4999 4.07575 16.4902 4.02699 16.4713 3.98149C16.4525 3.93599 16.4249 3.89465 16.39 3.85983L15.265 2.73483C15.2302 2.7 15.1889 2.67238 15.1434 2.65353C15.0979 2.63469 15.0491 2.62499 14.9999 2.62499C14.9506 2.62499 14.9019 2.63469 14.8564 2.65353C14.8109 2.67238 14.7695 2.7 14.7347 2.73483L14.6249 2.8447V2.625C14.6249 2.52554 14.5854 2.43016 14.515 2.35984C14.4447 2.28951 14.3493 2.25 14.2499 2.25H13.4999V1.5H22.4999V13.5Z" fill="#0B5C84"/>
<path d="M21 7.125H17.625C17.5255 7.125 17.4302 7.16451 17.3598 7.23483C17.2895 7.30516 17.25 7.40054 17.25 7.5C17.25 7.59946 17.2895 7.69484 17.3598 7.76517C17.4302 7.83549 17.5255 7.875 17.625 7.875H21C21.0995 7.875 21.1948 7.83549 21.2652 7.76517C21.3355 7.69484 21.375 7.59946 21.375 7.5C21.375 7.40054 21.3355 7.30516 21.2652 7.23483C21.1948 7.16451 21.0995 7.125 21 7.125Z" fill="#0B5C84"/>
<path d="M21 8.625H16.5C16.4005 8.625 16.3052 8.66451 16.2348 8.73483C16.1645 8.80516 16.125 8.90054 16.125 9C16.125 9.09946 16.1645 9.19484 16.2348 9.26517C16.3052 9.33549 16.4005 9.375 16.5 9.375H21C21.0995 9.375 21.1948 9.33549 21.2652 9.26517C21.3355 9.19484 21.375 9.09946 21.375 9C21.375 8.90054 21.3355 8.80516 21.2652 8.73483C21.1948 8.66451 21.0995 8.625 21 8.625Z" fill="#0B5C84"/>
<path d="M21 10.125H15C14.9005 10.125 14.8052 10.1645 14.7348 10.2348C14.6645 10.3052 14.625 10.4005 14.625 10.5C14.625 10.5995 14.6645 10.6948 14.7348 10.7652C14.8052 10.8355 14.9005 10.875 15 10.875H21C21.0995 10.875 21.1948 10.8355 21.2652 10.7652C21.3355 10.6948 21.375 10.5995 21.375 10.5C21.375 10.4005 21.3355 10.3052 21.2652 10.2348C21.1948 10.1645 21.0995 10.125 21 10.125Z" fill="#0B5C84"/>
<path d="M21 11.625H15C14.9005 11.625 14.8052 11.6645 14.7348 11.7348C14.6645 11.8052 14.625 11.9005 14.625 12C14.625 12.0995 14.6645 12.1948 14.7348 12.2652C14.8052 12.3355 14.9005 12.375 15 12.375H21C21.0995 12.375 21.1948 12.3355 21.2652 12.2652C21.3355 12.1948 21.375 12.0995 21.375 12C21.375 11.9005 21.3355 11.8052 21.2652 11.7348C21.1948 11.6645 21.0995 11.625 21 11.625Z" fill="#0B5C84"/>
<path d="M21 5.625H18C17.9005 5.625 17.8052 5.66451 17.7348 5.73484C17.6645 5.80516 17.625 5.90054 17.625 6C17.625 6.09946 17.6645 6.19484 17.7348 6.26517C17.8052 6.33549 17.9005 6.375 18 6.375H21C21.0995 6.375 21.1948 6.33549 21.2652 6.26517C21.3355 6.19484 21.375 6.09946 21.375 6C21.375 5.90054 21.3355 5.80516 21.2652 5.73484C21.1948 5.66451 21.0995 5.625 21 5.625Z" fill="#0B5C84"/>
<path d="M21 4.125H18C17.9005 4.125 17.8052 4.16451 17.7348 4.23484C17.6645 4.30516 17.625 4.40054 17.625 4.5C17.625 4.59946 17.6645 4.69484 17.7348 4.76516C17.8052 4.83549 17.9005 4.875 18 4.875H21C21.0995 4.875 21.1948 4.83549 21.2652 4.76516C21.3355 4.69484 21.375 4.59946 21.375 4.5C21.375 4.40054 21.3355 4.30516 21.2652 4.23484C21.1948 4.16451 21.0995 4.125 21 4.125Z" fill="#0B5C84"/>
<path d="M17.25 3.375H21C21.0995 3.375 21.1948 3.33549 21.2652 3.26516C21.3355 3.19484 21.375 3.09946 21.375 3C21.375 2.90054 21.3355 2.80516 21.2652 2.73484C21.1948 2.66451 21.0995 2.625 21 2.625H17.25C17.1505 2.625 17.0552 2.66451 16.9848 2.73484C16.9145 2.80516 16.875 2.90054 16.875 3C16.875 3.09946 16.9145 3.19484 16.9848 3.26516C17.0552 3.33549 17.1505 3.375 17.25 3.375Z" fill="#0B5C84"/>
</svg>
