<svg width="152" height="34" viewBox="0 0 152 34" fill="none" xmlns="http://www.w3.org/2000/svg">
<path d="M13.9056 7.78602L11.8543 9.93994L3.37793 1.00772L7.45861 1L13.9056 7.78602Z" fill="white" stroke="white" stroke-width="0.0882"/>
<path d="M5.32091 24.2439C5.07975 23.84 4.83128 23.3663 4.59743 22.8227C4.37088 22.3023 4.19549 21.8053 4.05664 21.3626C10.4145 14.5751 16.7797 7.78755 23.1376 1L27.1497 1.01553L5.32091 24.2439Z" fill="white" stroke="white" stroke-width="0.0882"/>
<path d="M15.2635 6.00637L12.9496 3.60091L10.8486 1.31572L10.9835 1.17289L11.1325 1H15.2635V6.00637Z" fill="white" stroke="white" stroke-width="0.0882" stroke-linecap="round" stroke-linejoin="round"/>
<path d="M15.2637 6.00637L17.7632 3.60482L20.0181 1.30866L19.8805 1.16562L19.7124 1H15.2637V6.00637Z" fill="white" stroke="white" stroke-width="0.0882" stroke-linecap="round" stroke-linejoin="round"/>
<path d="M10.1693 11.6227L8.0899 13.8737L1.01999 6.21724C0.961619 5.57524 1.04188 2.42074 1.12213 1.71533C4.12812 4.97287 7.1633 8.36516 10.1693 11.6227Z" fill="white" stroke="white" stroke-width="0.0882"/>
<path d="M8.14947 28.5353C7.84298 28.2508 7.52919 27.8356 7.18621 27.3589C6.85052 26.8975 6.60971 26.4515 6.43457 26.0748C13.9655 18.2088 21.5257 10.2967 29.0566 2.43066C29.1223 3.05348 29.1369 3.76857 29.1661 4.46829C29.1953 5.26027 29.1953 5.99843 29.1661 6.69045C22.1752 13.9567 15.1404 21.2691 8.14947 28.5353Z" fill="white" stroke="white" stroke-width="0.0882"/>
<path d="M11.5695 32.4689C11.2473 32.2918 9.71719 30.8132 9.49023 30.4821C15.8963 23.8207 22.4489 16.9669 28.8476 10.2979C28.7964 11.0756 28.6353 12.0152 28.4962 12.9085C28.3791 13.6632 28.24 14.364 28.0935 15.0185C22.6246 20.7789 17.0384 26.7086 11.5695 32.4689Z" fill="white" stroke="white" stroke-width="0.0882"/>
<path d="M14.6819 33.8986C14.5579 33.8455 13.653 33.6024 13.5654 33.4808C17.9 28.9306 22.4754 24.1449 26.81 19.5947C26.4451 20.6734 25.9197 22.0407 25.1681 23.56C24.6062 24.6995 23.9275 26.0516 22.76 27.6089C22.4973 27.9507 21.4465 29.3256 19.7608 30.8221C18.6662 31.802 17.4914 32.8275 15.6816 33.5796C15.273 33.7467 14.9227 33.8227 14.6819 33.8986Z" fill="white" stroke="white" stroke-width="0.0882"/>
<path d="M6.77326 15.054L3.04438 18.8802C2.86827 18.327 2.63091 17.7425 2.4548 17.0957C2.29401 16.4879 2.15618 15.9346 2.04133 15.4359C1.91116 14.867 1.781 14.2436 1.65849 13.5734C1.52067 12.9032 1.40581 12.1941 1.30627 11.4382C1.21439 10.6823 1.04594 9.89527 1 9.2251C2.89124 11.1421 4.88202 13.137 6.77326 15.054Z" fill="white" stroke="white" stroke-width="0.0882"/>
<path d="M19.7182 1H15.2637L17.8059 3.50318L20.0181 1.29662L19.7182 1Z" fill="white" stroke="white" stroke-width="0.0882"/>
<path d="M40.7471 22.0607V2.24455H49.1062C53.412 2.24455 55.5649 3.86565 55.5649 7.10784C55.5649 9.41126 54.2658 10.8872 51.6676 11.5356C54.7983 12.1937 56.3636 13.9454 56.3636 16.7908C56.3636 20.3041 54.2566 22.0607 50.0426 22.0607H40.7471ZM46.2005 20.4203H47.7566C49.7948 20.4203 50.8138 19.191 50.8138 16.7329C50.8138 13.9165 49.7626 12.5083 47.6602 12.5083H46.2005V20.4203ZM46.2005 10.8678H47.8806C49.4321 10.8678 50.2079 9.65805 50.2079 7.2385C50.2079 5.00283 49.3862 3.885 47.7428 3.885H46.2005V10.8678ZM75.4643 2.24455L80.6975 22.0607H75.2165L74.1009 17.7636H68.4409L67.2429 22.0607H65.1084L70.672 2.24455H75.4643ZM68.978 15.7747H73.5915L71.3742 6.99171L68.978 15.7747ZM102.924 7.79015L100.39 8.28375C100.5 7.75144 100.555 7.30625 100.555 6.94815C100.555 4.64474 99.2288 3.49304 96.5756 3.49304C94.4824 3.49304 93.4358 4.28665 93.4358 5.87387C93.4358 7.0643 94.6063 8.08535 96.9475 8.93703C101.464 10.5726 103.723 12.9922 103.723 16.1957C103.723 18.0733 103.089 19.5831 101.822 20.7251C100.555 21.8574 98.8708 22.4236 96.7684 22.4236C92.1137 22.4236 89.7864 20.5219 89.7864 16.7183C89.7864 16.4087 89.8093 16.0263 89.8553 15.5714L92.4855 14.9617C92.2835 15.8037 92.1826 16.5344 92.1826 17.1539C92.1826 19.612 93.5184 20.8413 96.1901 20.8413C98.3292 20.8413 99.3987 19.9556 99.3987 18.1846C99.3987 16.8683 98.118 15.7117 95.5566 14.7149C91.8567 13.2825 90.0067 10.9936 90.0067 7.84823C90.0067 6.06744 90.6219 4.63506 91.8521 3.55111C93.0916 2.45747 94.7164 1.91064 96.7271 1.91064C100.859 1.91064 102.924 3.87048 102.924 7.79015ZM126.748 2.24455V4.23343H120.014V10.2291H125.674V12.2179H120.014V20.0718H127.891V22.0607H114.561V2.24455H126.748ZM143.522 2.24455V20.0718H151.247V22.0607H138.068V2.24455H143.522Z" fill="white"/>
<path d="M46.1055 31.6611C46.0606 32.3145 45.8312 32.8289 45.4171 33.2043C45.0056 33.5797 44.4622 33.7673 43.787 33.7673C43.0485 33.7673 42.4669 33.5059 42.0422 32.9833C41.6202 32.4577 41.4092 31.7375 41.4092 30.8227V30.4515C41.4092 29.8676 41.5068 29.3532 41.702 28.9083C41.8971 28.4634 42.1754 28.1228 42.5368 27.8865C42.9008 27.6473 43.3228 27.5278 43.8028 27.5278C44.4675 27.5278 45.0029 27.7156 45.4091 28.0909C45.8153 28.4662 46.0501 28.9931 46.1134 29.6715H44.9265C44.8974 29.2795 44.7933 28.9959 44.6139 28.8207C44.4372 28.6428 44.1668 28.5538 43.8028 28.5538C43.4072 28.5538 43.1104 28.704 42.9126 29.0042C42.7174 29.3018 42.6172 29.7648 42.6119 30.3932V30.852C42.6119 31.5082 42.7056 31.9878 42.8928 32.2909C43.0827 32.5939 43.3808 32.7455 43.787 32.7455C44.1536 32.7455 44.4266 32.6579 44.606 32.4828C44.788 32.3048 44.8922 32.0308 44.9185 31.6611H46.1055Z" fill="white"/>
<path d="M51.831 28.6248H50.0664V33.684H48.8795V28.6248H47.1387V27.6113H51.831V28.6248Z" fill="white"/>
<path d="M54.2777 31.5444V33.684H53.0908V27.6113H55.338C55.7706 27.6113 56.1505 27.6946 56.4775 27.8616C56.8072 28.0284 57.0604 28.266 57.2371 28.5747C57.414 28.8805 57.5023 29.2295 57.5023 29.6216C57.5023 30.2166 57.3084 30.6865 56.9207 31.0313C56.5356 31.3733 56.0015 31.5444 55.3183 31.5444H54.2777ZM54.2777 30.5309H55.338C55.652 30.5309 55.8906 30.453 56.0541 30.2973C56.2204 30.1415 56.3035 29.919 56.3035 29.63C56.3035 29.3324 56.2204 29.092 56.0541 28.9083C55.888 28.7248 55.6585 28.6304 55.3658 28.6248H54.2777V30.5309Z" fill="white"/>
<path d="M62.3267 32.4327H60.2457L59.8499 33.684H58.5879L60.7323 27.6113H61.8322L63.9884 33.684H62.7262L62.3267 32.4327ZM60.5662 31.4192H62.0063L61.2823 29.1462L60.5662 31.4192Z" fill="white"/>
<path d="M67.5746 29.705L68.6546 27.6113H70.0196L68.3421 30.6225L70.0632 33.684H68.6822L67.5746 31.5568L66.4667 33.684H65.0859L66.8069 30.6225L65.1294 27.6113H66.4944L67.5746 29.705Z" fill="white"/>
<path d="M76.2976 30.7852C76.2976 31.383 76.1975 31.9073 75.9968 32.3577C75.7964 32.8081 75.509 33.1556 75.1345 33.4003C74.7625 33.645 74.3352 33.7673 73.8526 33.7673C73.3751 33.7673 72.9491 33.6464 72.5746 33.4044C72.2001 33.1625 71.9099 32.8178 71.7042 32.3701C71.4984 31.9197 71.3942 31.4025 71.3916 30.8186V30.5183C71.3916 29.9205 71.4931 29.3949 71.6962 28.9417C71.902 28.4857 72.1908 28.1367 72.5628 27.8948C72.9373 27.6501 73.3646 27.5278 73.8447 27.5278C74.3246 27.5278 74.7507 27.6501 75.1225 27.8948C75.497 28.1367 75.7858 28.4857 75.9889 28.9417C76.1948 29.3949 76.2976 29.919 76.2976 30.5142V30.7852ZM75.0949 30.5099C75.0949 29.8732 74.9867 29.3894 74.7704 29.0586C74.5541 28.7276 74.2456 28.5621 73.8447 28.5621C73.4463 28.5621 73.139 28.7263 72.9227 29.0543C72.7064 29.3797 72.5969 29.858 72.5943 30.4891V30.7852C72.5943 31.4052 72.7025 31.8863 72.9188 32.2284C73.1351 32.5703 73.4463 32.7414 73.8526 32.7414C74.2509 32.7414 74.5567 32.5774 74.7704 32.2492C74.984 31.9182 75.0923 31.4373 75.0949 30.806V30.5099Z" fill="white"/>
<path d="M78.4248 33.684V27.6113H80.4425C81.1415 27.6113 81.6718 27.7531 82.0331 28.0367C82.3944 28.3174 82.5751 28.7304 82.5751 29.2755C82.5751 29.5729 82.5026 29.8357 82.3574 30.0637C82.2124 30.289 82.0107 30.4543 81.7522 30.56C82.0475 30.6379 82.2796 30.7949 82.4486 31.0313C82.62 31.2676 82.7057 31.5568 82.7057 31.8989C82.7057 32.4828 82.529 32.9249 82.1755 33.2252C81.8221 33.5254 81.3182 33.6784 80.6641 33.684H78.4248ZM79.6117 31.0396V32.6789H80.6285C80.9082 32.6789 81.1257 32.6093 81.2814 32.4703C81.4396 32.3284 81.5187 32.1338 81.5187 31.8863C81.5187 31.3303 81.2457 31.0479 80.6998 31.0396H79.6117ZM79.6117 30.1554H80.49C81.0887 30.1443 81.3882 29.8927 81.3882 29.4005C81.3882 29.1252 81.3117 28.9278 81.1588 28.8083C81.0083 28.6859 80.7697 28.6248 80.4425 28.6248H79.6117V30.1554Z" fill="white"/>
<path d="M87.8705 32.4327H85.7895L85.3939 33.684H84.1318L86.2761 27.6113H87.376L89.5324 33.684H88.2702L87.8705 32.4327ZM86.1099 31.4192H87.5501L86.826 29.1462L86.1099 31.4192Z" fill="white"/>
<path d="M93.7214 33.684V31.4943H92.7561L91.7155 33.684H90.4336L91.6641 31.0939C91.0707 30.7491 90.7739 30.2138 90.7739 29.4881C90.7739 28.8931 90.9586 28.4328 91.3278 28.1076C91.697 27.7822 92.2127 27.6169 92.8747 27.6113H94.9123V33.684H93.7214ZM91.9608 29.5799C91.9608 29.919 92.0386 30.1652 92.1943 30.3181C92.3526 30.471 92.5886 30.5476 92.9025 30.5476H93.7214V28.6248H92.9025C92.2748 28.6248 91.9608 28.9432 91.9608 29.5799Z" fill="white"/>
<path d="M102.305 31.2023H101.621V33.684H100.434V27.6113H101.621V30.0428H102.163L103.571 27.6113H105.019L103.243 30.4849L105.205 33.684H103.789L102.305 31.2023Z" fill="white"/>
<path d="M111.28 30.7852C111.28 31.383 111.18 31.9073 110.979 32.3577C110.779 32.8081 110.491 33.1556 110.117 33.4003C109.745 33.645 109.318 33.7673 108.835 33.7673C108.357 33.7673 107.932 33.6464 107.557 33.4044C107.182 33.1625 106.892 32.8178 106.687 32.3701C106.481 31.9197 106.377 31.4025 106.374 30.8186V30.5183C106.374 29.9205 106.476 29.3949 106.679 28.9417C106.884 28.4857 107.173 28.1367 107.545 27.8948C107.92 27.6501 108.347 27.5278 108.827 27.5278C109.307 27.5278 109.733 27.6501 110.105 27.8948C110.479 28.1367 110.768 28.4857 110.971 28.9417C111.177 29.3949 111.28 29.919 111.28 30.5142V30.7852ZM110.077 30.5099C110.077 29.8732 109.969 29.3894 109.753 29.0586C109.537 28.7276 109.228 28.5621 108.827 28.5621C108.429 28.5621 108.121 28.7263 107.905 29.0543C107.689 29.3797 107.579 29.858 107.577 30.4891V30.7852C107.577 31.4052 107.685 31.8863 107.901 32.2284C108.118 32.5703 108.429 32.7414 108.835 32.7414C109.233 32.7414 109.539 32.5774 109.753 32.2492C109.966 31.9182 110.075 31.4373 110.077 30.806V30.5099Z" fill="white"/>
<path d="M114.96 27.6113L116.44 32.0156L117.912 27.6113H119.471V33.684H118.28V32.024L118.398 29.1586L116.843 33.684H116.028L114.477 29.1628L114.596 32.024V33.684H113.409V27.6113H114.96Z" fill="white"/>
<path d="M126.137 33.684H124.946V28.6248H122.639V33.684H121.452V27.6113H126.137V33.684Z" fill="white"/>
<path d="M131.398 32.4327H129.317L128.921 33.684H127.659L129.804 27.6113H130.904L133.06 33.684H131.798L131.398 32.4327ZM129.637 31.4192H131.078L130.354 29.1462L129.637 31.4192Z" fill="white"/>
<path d="M139.273 33.684H138.086V31.0813H135.772V33.684H134.585V27.6113H135.772V30.0721H138.086V27.6113H139.273V33.684Z" fill="white"/>
<path d="M144.828 27.6113H146.019V33.684H144.828V29.6508L142.522 33.684H141.335V27.6113H142.522V31.6527L144.828 27.6113Z" fill="white"/>
<path d="M150.809 33.684V31.4943H149.844L148.803 33.684H147.521L148.752 31.0939C148.159 30.7491 147.862 30.2138 147.862 29.4881C147.862 28.8931 148.046 28.4328 148.416 28.1076C148.785 27.7822 149.301 27.6169 149.963 27.6113H152V33.684H150.809ZM149.049 29.5799C149.049 29.919 149.126 30.1652 149.282 30.3181C149.44 30.471 149.676 30.5476 149.99 30.5476H150.809V28.6248H149.99C149.362 28.6248 149.049 28.9432 149.049 29.5799Z" fill="white"/>
</svg>
