<svg width="24" height="24" viewBox="0 0 24 24" fill="none" xmlns="http://www.w3.org/2000/svg">
<path d="M16.2302 9.21202C16.7026 9.66532 17.241 10.0444 17.827 10.3363C17.8786 10.3619 17.9354 10.3752 17.993 10.3753C18.0507 10.3753 18.1075 10.3621 18.1592 10.3366C18.7477 10.0447 19.2885 9.66527 19.7633 9.21127C20.8977 8.12331 21.5535 6.69704 21.7122 4.97209C21.7186 4.90252 21.7055 4.83255 21.6742 4.77006C21.643 4.70757 21.5949 4.65505 21.5355 4.61842C20.7276 4.12084 19.3796 3.29284 18.1956 2.56614C18.1365 2.52987 18.0685 2.51069 17.9991 2.51074C17.9298 2.51079 17.8618 2.53006 17.8028 2.56642L14.465 4.62128C14.4055 4.6579 14.3574 4.71042 14.3262 4.77291C14.295 4.8354 14.2818 4.90538 14.2882 4.97495C14.447 6.69896 15.1002 8.12452 16.2302 9.21202ZM17.9997 3.32593C19.0384 3.96343 20.1712 4.65934 20.9408 5.13301C20.7645 6.56963 20.1944 7.75871 19.2442 8.66996C18.8701 9.0276 18.4495 9.33314 17.9937 9.57831C17.5404 9.33335 17.1221 9.02839 16.7503 8.67165C15.8038 7.76073 15.2356 6.57212 15.0597 5.13592L17.9997 3.32593Z" fill="#0B5C84"/>
<path d="M17.625 7.87501C17.6743 7.87508 17.7231 7.86541 17.7686 7.84656C17.8141 7.82771 17.8554 7.80006 17.8902 7.76518L19.7652 5.89018C19.8355 5.81985 19.875 5.72447 19.875 5.62501C19.875 5.52555 19.8355 5.43017 19.7652 5.35984C19.6949 5.28951 19.5995 5.25 19.5 5.25C19.4006 5.25 19.3052 5.28951 19.2348 5.35984L17.625 6.96971L17.1402 6.48484C17.0699 6.41451 16.9745 6.375 16.875 6.375C16.7756 6.375 16.6802 6.41451 16.6098 6.48484C16.5395 6.55517 16.5 6.65055 16.5 6.75001C16.5 6.84947 16.5395 6.94485 16.6098 7.01518L17.3598 7.76518C17.3946 7.80006 17.436 7.82771 17.4815 7.84656C17.527 7.86541 17.5758 7.87508 17.625 7.87501Z" fill="#0B5C84"/>
<path d="M1.87535 23.2499H3.37535C3.67362 23.2496 3.95957 23.1309 4.17047 22.92C4.38138 22.7091 4.50001 22.4232 4.50035 22.1249V21.7499H18.0004V22.1249C18.0007 22.4232 18.1193 22.7091 18.3302 22.92C18.5411 23.1309 18.8271 23.2496 19.1254 23.2499H20.6254C20.9236 23.2496 21.2096 23.1309 21.4205 22.92C21.6314 22.7091 21.75 22.4232 21.7504 22.1249V15.3749C21.7504 14.7416 21.3638 13.1134 20.6444 12.3749C20.9139 12.37 21.1727 12.2686 21.3737 12.089C21.5746 11.9095 21.7045 11.6637 21.7396 11.3965C21.7747 11.1292 21.7126 10.8583 21.5648 10.6329C21.4169 10.4076 21.1931 10.2428 20.934 10.1686C22.0415 9.05047 23.2484 7.14045 23.2484 4.12489C23.2484 4.06086 23.232 3.9979 23.2008 3.942C23.1695 3.88611 23.1245 3.83914 23.07 3.80557L18.1969 0.805574C18.1372 0.769845 18.069 0.750977 17.9994 0.750977C17.9298 0.750977 17.8615 0.769845 17.8018 0.805574L12.9288 3.80557C12.8742 3.83914 12.8292 3.88611 12.798 3.942C12.7668 3.9979 12.7504 4.06086 12.7504 4.12489C12.7484 4.75382 12.8053 5.38155 12.9202 5.99989H6.37535C5.55649 5.99989 4.79716 6.68515 4.53068 7.35167L3.24157 10.1249H1.87535C1.57698 10.1223 1.28982 10.2384 1.07705 10.4476C0.864271 10.6568 0.743306 10.9419 0.740764 11.2403C0.738221 11.5387 0.854309 11.8258 1.06349 12.0386C1.27267 12.2514 1.55781 12.3723 1.85618 12.3749C1.13688 13.1135 0.750349 14.7416 0.750349 15.3749V22.1249C0.750684 22.4232 0.869319 22.7091 1.08022 22.92C1.29113 23.1309 1.57708 23.2496 1.87535 23.2499ZM8.62535 20.9999H3.75035C3.40883 20.9998 3.07182 20.9219 2.76493 20.7721C2.45804 20.6222 2.18935 20.4044 1.97927 20.1351C2.18617 20.2112 2.4049 20.2501 2.62535 20.2499H8.62535V20.9999ZM13.1254 20.9999H9.37535V19.8749H13.1254V20.9999ZM13.8754 20.9999V20.2499H19.8754C20.0958 20.2501 20.3145 20.2112 20.5214 20.1351C20.3114 20.4044 20.0427 20.6222 19.7358 20.7721C19.4289 20.9219 19.0919 20.9998 18.7504 20.9999H13.8754ZM21.0004 22.1249C21.0002 22.2243 20.9607 22.3196 20.8904 22.3899C20.8201 22.4602 20.7248 22.4998 20.6254 22.4999H19.1254C19.0259 22.4998 18.9306 22.4602 18.8603 22.3899C18.79 22.3196 18.7505 22.2243 18.7504 22.1249V21.7499C19.1763 21.7499 19.5973 21.6591 19.9854 21.4834C20.3734 21.3077 20.7194 21.0512 21.0004 20.731V22.1249ZM21.0004 16.6874L19.7503 17.6249H17.2822C17.3714 17.101 17.643 16.6254 18.0489 16.2823C18.4548 15.9392 18.9689 15.7506 19.5004 15.7499H21.0004V16.6874ZM20.7847 14.2499C20.8612 14.4956 20.9209 14.7461 20.9636 14.9999H19.5004C18.77 15.0009 18.065 15.2679 17.5173 15.7511C16.9696 16.2342 16.6167 16.9004 16.5246 17.6249H15.7691C15.8633 16.7004 16.2968 15.8436 16.986 15.2202C17.6752 14.5968 18.5711 14.2511 19.5004 14.2499H20.7847ZM11.2503 16.1249C10.4092 16.1249 9.75035 16.619 9.75035 17.2499C9.7505 17.3794 9.77871 17.5073 9.83304 17.6249H7.4846C7.38922 16.5008 6.87564 15.4533 6.04536 14.6896C5.21508 13.9258 4.12849 13.5013 3.00035 13.4999H2.0044C2.28129 12.9206 2.52405 12.7535 2.62179 12.7499H2.62399H19.8767H19.8789C19.9766 12.7533 20.2194 12.9203 20.4963 13.4999H19.5004C18.3722 13.5013 17.2856 13.9258 16.4553 14.6896C15.6251 15.4533 15.1115 16.5008 15.0161 17.6249H12.6677C12.722 17.5073 12.7502 17.3794 12.7504 17.2499C12.7504 16.619 12.0915 16.1249 11.2503 16.1249ZM12.0003 17.2499C12.0003 17.4028 11.7082 17.6249 11.2503 17.6249C10.7925 17.6249 10.5003 17.4028 10.5003 17.2499C10.5003 17.097 10.7925 16.8749 11.2503 16.8749C11.7082 16.8749 12.0003 17.097 12.0003 17.2499ZM18.0061 11.9999C18.0436 11.9999 18.0808 11.9942 18.1166 11.9832C18.4549 11.8682 18.782 11.7227 19.0938 11.5483L19.3035 11.9999H18.0061ZM21.0004 11.2499C21.0002 11.3493 20.9606 11.4446 20.8903 11.5149C20.82 11.5852 20.7248 11.6247 20.6254 11.6249H20.1213L19.8447 11.0833C19.9384 11.0179 20.0336 10.9483 20.1302 10.8745H20.6254C20.7248 10.8747 20.8202 10.9143 20.8905 10.9846C20.9608 11.055 21.0003 11.1504 21.0004 11.2499ZM17.9994 1.56453L22.4964 4.33306C22.4524 6.60383 21.6836 8.45117 20.2096 9.82681C19.5675 10.4294 18.8175 10.9054 17.9988 11.2299C17.1904 10.9107 16.4491 10.4424 15.8135 9.84945C14.3237 8.47198 13.5467 6.61681 13.5024 4.33306L17.9994 1.56453ZM6.37535 6.74989H13.0953C13.1691 7.01239 13.2521 7.26239 13.3443 7.49989H5.28954C5.51468 7.08739 5.9891 6.74989 6.37535 6.74989ZM4.94022 8.24989H13.6787C14.0894 9.05698 14.6398 9.78496 15.3043 10.4001C16.5693 11.5696 17.8291 11.9668 17.8821 11.9832C17.9179 11.9942 17.9552 11.9999 17.9927 11.9999H3.19699L4.94022 8.24989ZM1.50035 11.2499C1.50049 11.1505 1.54004 11.0552 1.61034 10.9849C1.68063 10.9146 1.77594 10.875 1.87535 10.8749H2.76274L2.37944 11.6253H1.87535C1.77587 11.6252 1.68051 11.5855 1.6102 11.5152C1.53989 11.4448 1.50039 11.3494 1.50035 11.2499ZM1.71597 14.2499H3.00035C3.92965 14.2511 4.82551 14.5968 5.5147 15.2202C6.20389 15.8436 6.63747 16.7004 6.7316 17.6249H5.97607C5.88397 16.9004 5.53106 16.2342 4.98336 15.7511C4.43566 15.2679 3.7307 15.0009 3.00035 14.9999H1.53696C1.57967 14.7461 1.63948 14.4956 1.71597 14.2499ZM1.50035 15.7499H3.00035C3.53183 15.7506 4.04594 15.9392 4.45184 16.2823C4.85774 16.6254 5.1293 17.1009 5.21852 17.6249H2.75037L1.50035 16.6874V15.7499ZM1.50035 17.6249L2.40035 18.2999C2.46526 18.3486 2.54421 18.3749 2.62535 18.3749H19.8754C19.9565 18.3749 20.0354 18.3486 20.1004 18.2999L21.0004 17.6249V18.3749C21 18.6731 20.8814 18.9591 20.6705 19.17C20.4596 19.3809 20.1736 19.4995 19.8754 19.4999H13.8754C13.8754 19.4004 13.8358 19.305 13.7655 19.2347C13.6952 19.1644 13.5998 19.1249 13.5004 19.1249H9.00035C8.90089 19.1249 8.80551 19.1644 8.73518 19.2347C8.66486 19.305 8.62535 19.4004 8.62535 19.4999H2.62535C2.32708 19.4996 2.04113 19.3809 1.83022 19.17C1.61932 18.9591 1.50068 18.6732 1.50035 18.3749V17.6249ZM1.50035 20.731C1.78129 21.0512 2.12733 21.3077 2.51535 21.4834C2.90336 21.6591 3.32441 21.7499 3.75035 21.7499V22.1249C3.75024 22.2243 3.71069 22.3196 3.64039 22.3899C3.57009 22.4602 3.47477 22.4998 3.37535 22.4999H1.87535C1.77593 22.4998 1.68061 22.4602 1.61031 22.3899C1.54001 22.3196 1.50046 22.2243 1.50035 22.1249V20.731Z" fill="#0B5C84"/>
</svg>
