<svg width="72" height="72" viewBox="0 0 72 72" fill="none" xmlns="http://www.w3.org/2000/svg">
<path d="M30.0159 4.81409C16.1036 4.81409 4.82547 16.0922 4.82547 30.0045C4.82547 43.9169 16.1036 55.195 30.0159 55.195C43.9282 55.195 55.2064 43.9169 55.2064 30.0045C55.1912 16.0985 43.9219 4.82923 30.0159 4.81409ZM30.0159 7.21318C37.4255 7.21903 44.3689 10.8303 48.6281 16.8935L45.6292 19.8924C44.8994 19.4508 44.0639 19.2145 43.2109 19.2086C40.561 19.2086 38.4127 21.3569 38.4127 24.0068C38.4169 24.8607 38.6519 25.6976 39.0929 26.4287L31.2383 34.2833C29.751 33.3765 27.8818 33.3765 26.3945 34.2833L20.939 28.8278C21.3799 28.0967 21.6149 27.2598 21.6191 26.4059C21.6224 23.7612 19.4812 21.6146 16.8365 21.6113C14.6493 21.6086 12.7383 23.0881 12.1931 25.2064H7.74276C10.014 14.7183 19.2848 7.22892 30.0159 7.21318ZM45.61 24.0068C45.61 25.3319 44.536 26.4059 43.2109 26.4059C41.8859 26.4059 40.8118 25.3319 40.8118 24.0068C40.8118 22.6818 41.8859 21.6077 43.2109 21.6077C44.536 21.6077 45.61 22.6818 45.61 24.0068ZM31.2155 38.4014C31.2155 39.7264 30.1414 40.8004 28.8164 40.8004C27.4913 40.8004 26.4173 39.7264 26.4173 38.4014C26.4173 37.0763 27.4913 36.0023 28.8164 36.0023C30.1414 36.0023 31.2155 37.0763 31.2155 38.4014ZM19.22 26.4059C19.22 27.731 18.146 28.805 16.8209 28.805C15.4959 28.805 14.4218 27.731 14.4218 26.4059C14.4218 25.0809 15.4959 24.0068 16.8209 24.0068C18.146 24.0068 19.22 25.0809 19.22 26.4059ZM41.0898 49.9329C37.7023 51.8138 33.8907 52.7992 30.0159 52.7958C17.4372 52.8043 7.23311 42.6143 7.22456 30.0356C7.22396 29.2238 7.26684 28.4124 7.35291 27.6053H12.1931C12.7384 29.7172 14.6397 31.1957 16.8209 31.2039C17.6748 31.1997 18.5117 30.9648 19.2428 30.5238L24.6983 35.9793C24.2574 36.7104 24.0224 37.5473 24.0182 38.4012C24.0182 41.0512 26.1664 43.1994 28.8164 43.1994C31.4663 43.1994 33.6146 41.0512 33.6146 38.4012C33.6104 37.5473 33.3754 36.7104 32.9344 35.9793L40.789 28.1247C41.5202 28.5657 42.357 28.8006 43.2109 28.8048C45.8609 28.8048 48.0091 26.6566 48.0091 24.0067C48.0049 23.1527 47.7699 22.3159 47.329 21.5848L49.944 18.971C56.0489 29.966 52.0847 43.8281 41.0898 49.9329Z" fill="white"/>
<path d="M60.0045 12.0113C62.1858 12.0031 64.087 10.5248 64.6324 8.41269H72V6.0136H64.6324C64.087 3.9015 62.1858 2.42321 60.0045 2.41497C57.3546 2.41497 55.2064 4.5632 55.2064 7.21315C55.2106 8.06707 55.4455 8.90391 55.8865 9.63503L53.7789 11.7426C43.6945 -1.39554 24.8688 -3.8711 11.7307 6.21333C-1.40752 16.2978 -3.88308 35.1236 6.20135 48.2617C15.7203 60.6631 33.1694 63.6714 46.2913 55.1734L49.9116 58.7936L51.6077 60.4898L61.2641 70.1461C63.72 72.602 67.7016 72.602 70.1575 70.1461C72.6134 67.6902 72.6134 63.7086 70.1575 61.2527L60.5012 51.5963L58.805 49.9002L55.1848 46.2799C61.6112 36.3813 61.6112 23.6279 55.1848 13.7291L57.5839 11.33C58.3145 11.7711 59.1511 12.0065 60.0045 12.0113ZM60.0045 4.81406C61.3296 4.81406 62.4036 5.8881 62.4036 7.21315C62.4036 8.5382 61.3296 9.61224 60.0045 9.61224C58.6795 9.61224 57.6055 8.5382 57.6055 7.21315C57.6055 5.8881 58.6796 4.81406 60.0045 4.81406ZM68.4613 62.9488C69.9977 64.4507 70.0257 66.9136 68.5239 68.4499C67.022 69.9863 64.5591 70.0143 63.0228 68.5125C63.0016 68.4919 62.9809 68.4711 62.9602 68.4499L53.3039 58.7936L58.805 53.2925L68.4613 62.9488ZM57.1088 51.5963L51.6077 57.0974L48.2874 53.7771C48.4565 53.6475 48.6149 53.5048 48.7816 53.3717C48.9483 53.2385 49.1415 53.079 49.3202 52.929C49.5829 52.7083 49.842 52.4852 50.0963 52.2561C50.2271 52.1361 50.3518 52.0162 50.4802 51.8962C50.972 51.4356 51.4482 50.9594 51.9088 50.4676C52.0288 50.3392 52.1487 50.2145 52.2687 50.0837C52.4978 49.8294 52.7209 49.5703 52.9416 49.3076C53.092 49.1301 53.2396 48.9506 53.3843 48.769C53.5162 48.6035 53.659 48.4451 53.7885 48.276L57.1088 51.5963ZM52.457 46.0244C52.0792 46.5522 51.6893 47.0692 51.2779 47.5671C51.1579 47.7122 51.0296 47.8525 50.906 47.9953C50.5389 48.4223 50.1599 48.8366 49.7688 49.238C49.5985 49.4139 49.4253 49.5871 49.2494 49.7574C48.8495 50.1485 48.4354 50.5275 48.0067 50.8946C47.8639 51.0145 47.7236 51.1453 47.5785 51.2665C47.0806 51.6779 46.5636 52.0677 46.0358 52.4456C33.6182 61.317 16.3598 58.4421 7.48846 46.0244C-1.38293 33.6067 1.49193 16.3484 13.9096 7.47705C26.3273 -1.39434 43.5856 1.48037 52.457 13.8982C59.3216 23.5069 59.3216 36.4158 52.457 46.0244Z" fill="white"/>
</svg>
