<svg width="70" height="70" viewBox="0 0 70 70" fill="none" xmlns="http://www.w3.org/2000/svg">
<g clip-path="url(#clip0)">
<path d="M69.9996 67.6667H0.000457764V70.0001H69.9996V67.6667Z" fill="white"/>
<path d="M67.5437 9.97927L62.8771 0.646053C62.5894 0.0694351 61.889 -0.16477 61.3124 0.122955C61.3121 0.123101 61.3118 0.123247 61.3115 0.123393L51.9783 4.79C51.4017 5.07802 51.1676 5.77903 51.4556 6.35565C51.7436 6.93227 52.4446 7.16633 53.0213 6.87831L59.7808 3.50085L57.9364 8.76712C49.8292 31.8563 28.9477 48.0547 4.56787 50.1669L4.7662 52.5002C30.0646 50.3087 51.7318 33.4977 60.1402 9.53711L62.0231 4.15651L65.4554 11.0223C65.7435 11.5989 66.4445 11.8329 67.0211 11.5449C67.5979 11.2569 67.8318 10.556 67.5437 9.97927Z" fill="white"/>
<path d="M14.0003 56.0002H5.83371C5.18942 56.0002 4.66705 56.5226 4.66705 57.1668V64.1667C4.66705 64.811 5.18942 65.3334 5.83371 65.3334H14.0003C14.6446 65.3334 15.1669 64.811 15.1669 64.1667V57.1668C15.1669 56.5226 14.6446 56.0002 14.0003 56.0002ZM12.8336 63.0001H7.00036V58.3335H12.8336V63.0001Z" fill="white"/>
<path d="M26.8334 52.5002H18.6669C18.0226 52.5002 17.5002 53.0226 17.5002 53.6669V64.1668C17.5002 64.8111 18.0226 65.3334 18.6669 65.3334H26.8334C27.4777 65.3334 28.0001 64.8111 28.0001 64.1668V53.6669C28.0001 53.0226 27.4777 52.5002 26.8334 52.5002ZM25.6668 63.0001H19.8335V54.8335H25.6668V63.0001Z" fill="white"/>
<path d="M39.6666 46.667H31.5001C30.8558 46.667 30.3334 47.1894 30.3334 47.8336V64.1668C30.3334 64.8111 30.8558 65.3334 31.5001 65.3334H39.6666C40.3109 65.3334 40.8333 64.8111 40.8333 64.1668V47.8336C40.8333 47.1894 40.3109 46.667 39.6666 46.667ZM38.5 63.0001H32.6667V49.0003H38.5V63.0001Z" fill="white"/>
<path d="M52.4998 38.5004H44.3332C43.6889 38.5004 43.1666 39.0228 43.1666 39.6671V64.1668C43.1666 64.8111 43.6889 65.3334 44.3332 65.3334H52.4998C53.1441 65.3334 53.6664 64.8111 53.6664 64.1668V39.6671C53.6664 39.0228 53.1441 38.5004 52.4998 38.5004ZM51.3331 63.0001H45.4999V40.8337H51.3331V63.0001Z" fill="white"/>
<path d="M65.3329 22.1673H57.1664C56.5221 22.1673 55.9997 22.6897 55.9997 23.3339V64.1668C55.9997 64.8111 56.5221 65.3334 57.1664 65.3334H65.3329C65.9772 65.3334 66.4996 64.8111 66.4996 64.1668V23.3339C66.4996 22.6897 65.9772 22.1673 65.3329 22.1673ZM64.1663 63.0001H58.333V24.5006H64.1663V63.0001Z" fill="white"/>
</g>
<defs>
<clipPath id="clip0">
<rect width="70" height="70" fill="white"/>
</clipPath>
</defs>
</svg>
