<svg width="68" height="68" viewBox="0 0 68 68" fill="none" xmlns="http://www.w3.org/2000/svg">
<path d="M41.7027 13.4249C30.3575 13.4249 21.1275 22.6549 21.1275 34.0001C21.1275 45.3453 30.3576 54.5753 41.7027 54.5753C53.0478 54.5753 62.2779 45.3453 62.2779 34.0001C62.2779 22.6549 53.0478 13.4249 41.7027 13.4249ZM41.7027 51.919C31.8221 51.919 23.7838 43.8807 23.7838 34.0001C23.7838 24.1195 31.8221 16.0812 41.7027 16.0812C51.5833 16.0812 59.6217 24.1195 59.6217 34.0001C59.6217 43.8807 51.5833 51.919 41.7027 51.919Z" fill="white"/>
<path d="M54.3129 32.6719H44.001C43.5415 31.8785 42.6854 31.3434 41.7026 31.3434C41.465 31.3434 41.236 31.3775 41.0169 31.4361L38.5784 28.9976C38.0598 28.4791 37.2188 28.4791 36.7002 28.9976C36.1816 29.5163 36.1816 30.3572 36.7002 30.876L39.1386 33.3143C39.0802 33.5335 39.0461 33.7626 39.0461 34C39.0461 35.4672 40.2355 36.6567 41.7027 36.6567C42.6855 36.6567 43.5417 36.1216 44.0012 35.3282H54.313C55.0465 35.3282 55.6411 34.7334 55.6411 34C55.6411 33.2666 55.0464 32.6719 54.3129 32.6719Z" fill="white"/>
<path d="M41.7027 7.70276C33.0699 7.70276 25.396 11.8845 20.5984 18.3282H8.5C7.76648 18.3282 7.17188 18.9229 7.17188 19.6563C7.17188 20.3897 7.76648 20.9844 8.5 20.9844H18.8588C18.0418 22.4128 17.3549 23.9247 16.8143 25.5041C16.7875 25.5026 16.7608 25.5 16.7336 25.5H1.32812C0.594602 25.5 0 26.0948 0 26.8282C0 27.5615 0.594602 28.1563 1.32812 28.1563H16.0608C15.7275 29.6193 15.516 31.1282 15.4388 32.6719H10.3596C9.62612 32.6719 9.03152 33.2666 9.03152 34C9.03152 34.7334 9.62612 35.3282 10.3596 35.3282H15.4388C15.6505 39.563 16.869 43.537 18.8588 47.0157H1.32812C0.594602 47.0157 0 47.6104 0 48.3438C0 49.0772 0.594602 49.6719 1.32812 49.6719H20.5984C25.3959 56.1157 33.0699 60.2973 41.7027 60.2973C56.2031 60.2973 68 48.5005 68 34C68 19.4996 56.2031 7.70276 41.7027 7.70276ZM41.7027 57.6411C28.667 57.6411 18.0617 47.0357 18.0617 34C18.0617 20.9644 28.6669 10.359 41.7027 10.359C54.7385 10.359 65.3438 20.9644 65.3438 34C65.3438 47.0357 54.7384 57.6411 41.7027 57.6411Z" fill="white"/>
<path d="M41.7031 45.2825C41.3525 45.2825 41.0112 45.4244 40.7628 45.6716C40.5158 45.9186 40.375 46.2612 40.375 46.6106C40.375 46.9599 40.5158 47.3025 40.7628 47.5494C41.0112 47.7965 41.3538 47.9387 41.7031 47.9387C42.0524 47.9387 42.3938 47.7966 42.6421 47.5494C42.8891 47.3025 43.0312 46.9599 43.0312 46.6106C43.0312 46.2612 42.8891 45.9186 42.6421 45.6716C42.3951 45.4246 42.0524 45.2825 41.7031 45.2825Z" fill="white"/>
<path d="M41.7031 22.7177C42.0524 22.7177 42.3951 22.5755 42.6421 22.3285C42.8891 22.0815 43.0312 21.7388 43.0312 21.3895C43.0312 21.0402 42.8891 20.6976 42.6421 20.4505C42.3951 20.2036 42.0524 20.0614 41.7031 20.0614C41.3525 20.0614 41.0112 20.2035 40.7641 20.4505C40.5158 20.6976 40.375 21.0402 40.375 21.3895C40.375 21.7388 40.5158 22.0815 40.7641 22.3285C41.0112 22.5754 41.3538 22.7177 41.7031 22.7177Z" fill="white"/>
<path d="M29.0926 32.6719C28.7433 32.6719 28.4006 32.8139 28.1536 33.061C27.9066 33.308 27.7645 33.6507 27.7645 34C27.7645 34.3493 27.9066 34.692 28.1536 34.9389C28.4006 35.1859 28.7433 35.3281 29.0926 35.3281C29.4419 35.3281 29.7845 35.186 30.0316 34.9389C30.2786 34.692 30.4207 34.3493 30.4207 34C30.4207 33.6507 30.2786 33.308 30.0316 33.061C29.7845 32.8139 29.4419 32.6719 29.0926 32.6719Z" fill="white"/>
<path d="M1.32812 42.5H8.5C9.23352 42.5 9.82812 41.9053 9.82812 41.1719C9.82812 40.4385 9.23352 39.8438 8.5 39.8438H1.32812C0.594602 39.8438 0 40.4385 0 41.1719C0 41.9053 0.594602 42.5 1.32812 42.5Z" fill="white"/>
</svg>
