<svg width="29" height="29" viewBox="0 0 29 29" fill="none" xmlns="http://www.w3.org/2000/svg">
<path d="M14.5001 0C9.25976 0 4.99652 4.26046 4.99652 9.49732C4.99652 14.5303 13.6332 28.1488 14.0008 28.7261C14.1095 28.8967 14.2978 29 14.5001 29C14.7023 29 14.8906 28.8967 14.9992 28.7261C15.3669 28.1488 24.0035 14.5302 24.0035 9.49732C24.0035 4.26046 19.7402 0 14.5001 0ZM14.5001 27.2912C13.7184 26.0268 12.1322 23.4095 10.5614 20.5095C7.69524 15.2174 6.18025 11.4095 6.18025 9.49732C6.18019 4.91313 9.91249 1.18367 14.5001 1.18367C19.0876 1.18367 22.8198 4.91313 22.8198 9.49732C22.8198 11.4095 21.3048 15.2174 18.4386 20.5095C16.8679 23.4095 15.2816 26.0268 14.5001 27.2912Z" fill="white"/>
<path d="M14.4999 4.50244C12.0211 4.50244 10.0044 6.46432 10.0044 8.87576C10.0044 11.2871 12.0211 13.2489 14.4999 13.2489C16.9788 13.2489 18.9955 11.2871 18.9955 8.87576C18.9955 6.46432 16.9788 4.50244 14.4999 4.50244ZM14.4999 12.0652C12.6738 12.0652 11.1881 10.6344 11.1881 8.8757C11.1881 7.11694 12.6738 5.68606 14.4999 5.68606C16.3261 5.68606 17.8118 7.11694 17.8118 8.8757C17.8118 10.6344 16.3261 12.0652 14.4999 12.0652Z" fill="white"/>
</svg>
