<?xml version="1.0" encoding="UTF-8" standalone="no"?>
<svg
   xmlns:dc="http://purl.org/dc/elements/1.1/"
   xmlns:cc="http://creativecommons.org/ns#"
   xmlns:rdf="http://www.w3.org/1999/02/22-rdf-syntax-ns#"
   xmlns:svg="http://www.w3.org/2000/svg"
   xmlns="http://www.w3.org/2000/svg"
   viewBox="0 0 3413.3333 1186.6667"
   height="1186.6667"
   width="3413.3333"
   xml:space="preserve"
   id="svg2"
   version="1.1"><metadata
     id="metadata8"><rdf:RDF><cc:Work
         rdf:about=""><dc:format>image/svg+xml</dc:format><dc:type
           rdf:resource="http://purl.org/dc/dcmitype/StillImage" /></cc:Work></rdf:RDF></metadata><defs
     id="defs6"><clipPath
       id="clipPath18"
       clipPathUnits="userSpaceOnUse"><path
         id="path16"
         d="M 0,890 H 2560 V 0 H 0 Z" /></clipPath></defs><g
     transform="matrix(1.3333333,0,0,-1.3333333,0,1186.6667)"
     id="g10"><g
       id="g12"><g
         clip-path="url(#clipPath18)"
         id="g14"><g
           transform="translate(676.8091,373.9194)"
           id="g20"><path
             id="path22"
             style="fill:#00b4ff;fill-opacity:1;fill-rule:nonzero;stroke:none"
             d="m 0,0 c -7.918,31.975 -20.582,62.085 -37.195,89.53 -8.648,14.299 -18.372,27.868 -29.054,40.61 -6.257,7.462 -12.846,14.638 -19.735,21.507 -26.467,26.382 -57.464,48.222 -91.719,64.249 -21.853,10.232 -45.029,18.098 -69.209,23.273 -22.009,4.712 -44.852,7.189 -68.276,7.189 -15.935,0 -31.603,-1.148 -46.925,-3.37 -4.908,-0.703 -9.783,-1.525 -14.619,-2.45 -95.688,-18.36 -176.439,-78.718 -222.334,-161.143 22.009,-4.712 44.853,-7.189 68.276,-7.189 58.702,0 113.768,15.577 161.286,42.819 0.437,0.268 0.886,0.522 1.33,0.77 3.213,1.864 6.387,3.78 9.528,5.748 0.111,-0.176 0.215,-0.345 0.326,-0.515 26.93,-42.728 74.533,-71.118 128.771,-71.118 6.276,0 12.467,0.379 18.549,1.121 -10.741,11.497 -18.888,25.444 -23.502,40.917 -2.803,9.378 -4.309,19.317 -4.309,29.608 0,4.321 0.268,8.584 0.783,12.768 32.215,-7.717 61.035,-24.18 83.8,-46.743 3.624,-3.585 7.098,-7.332 10.402,-11.223 13.804,-16.222 24.747,-34.953 32.059,-55.411 6.72,-18.77 10.376,-39 10.376,-60.077 0,-1.161 -0.013,-2.321 -0.039,-3.474 -0.724,-38.225 -13.478,-73.503 -34.633,-102.212 -10.239,-13.902 -22.447,-26.259 -36.211,-36.667 -29.883,-22.596 -67.117,-36.003 -107.472,-36.003 -30.287,0 -58.813,7.548 -83.795,20.869 -3.604,6.713 -6.719,13.726 -9.293,20.999 -5.638,15.896 -8.708,33.004 -8.708,50.836 0,21.533 4.471,42.017 12.546,60.579 -28.872,-9.385 -53.951,-27.177 -72.356,-50.49 -6.361,-8.049 -11.92,-16.763 -16.567,-26.011 -66.764,39.319 -118.232,101.834 -143.318,176.472 1.728,-102.878 51.292,-194.115 127.416,-252.406 54.674,-41.875 123.055,-66.758 197.242,-66.758 30.072,0 59.184,4.086 86.819,11.738 0.052,0.013 0.104,0.026 0.15,0.039 1.055,0.293 2.105,0.593 3.154,0.899 0.15,0.039 0.306,0.085 0.456,0.131 1.219,0.358 2.438,0.736 3.643,1.133 -0.006,-0.019 -0.013,-0.045 -0.026,-0.065 81.292,24.597 149.105,80.217 189.683,153.081 1.466,12.494 2.216,25.21 2.216,38.094 C 9.516,-51.331 6.218,-25.092 0,0" /></g><g
           transform="translate(724.9404,415.2334)"
           id="g24"><path
             id="path26"
             style="fill:#2b92e4;fill-opacity:1;fill-rule:nonzero;stroke:none"
             d="m 0,0 c 0,36.204 -5.924,71.026 -16.861,103.542 -9.926,29.53 -23.984,57.164 -41.496,82.21 -6.693,9.601 -13.908,18.816 -21.592,27.615 -40.812,46.788 -94.835,81.767 -156.255,99.129 3.148,30.638 19.676,57.308 43.647,74.07 3.344,2.334 6.83,4.484 10.448,6.413 -12.794,3.8 -26.181,6.212 -39.997,7.04 -3.611,0.221 -7.255,0.332 -10.917,0.332 -8.154,0 -16.177,-0.548 -24.037,-1.61 -52.386,-7.052 -97.565,-36.849 -125.264,-79.135 -139.59,-24.994 -248.254,-139.205 -264.874,-281.525 45.896,82.425 126.647,142.783 222.335,161.143 4.836,0.925 9.711,1.747 14.618,2.45 15.323,2.222 30.991,3.37 46.926,3.37 23.423,0 46.267,-2.477 68.276,-7.189 24.18,-5.175 47.356,-13.041 69.209,-23.273 34.255,-16.027 65.251,-37.867 91.719,-64.249 6.889,-6.869 13.478,-14.045 19.735,-21.507 10.681,-12.742 20.405,-26.311 29.054,-40.61 16.613,-27.445 29.276,-57.555 37.195,-89.53 6.217,-25.092 9.515,-51.331 9.515,-78.346 0,-12.884 -0.749,-25.6 -2.216,-38.094 C -14.821,-111.05 0,-57.255 0,0" /></g><g
           transform="translate(963.0068,738.625)"
           id="g28"><path
             id="path30"
             style="fill:#2b92e4;fill-opacity:1;fill-rule:nonzero;stroke:none"
             d="M 0,0 C 108.289,0 162.627,-41.142 169.613,-119.543 H 98.586 C 91.988,-75.685 58.22,-58.606 0,-58.606 c -71.027,0 -100.914,-25.231 -100.914,-80.733 0,-55.89 30.274,-81.507 100.914,-81.507 57.831,0 91.988,17.465 98.586,61.715 h 71.027 C 162.627,-237.924 108.289,-279.452 0,-279.452 c -119.544,0 -170.777,49.681 -170.777,140.113 C -170.777,-49.29 -119.544,0 0,0" /></g><g
           transform="translate(1418.2607,577.1626)"
           id="g32"><path
             id="path34"
             style="fill:#2b92e4;fill-opacity:1;fill-rule:nonzero;stroke:none"
             d="m 0,0 c 0,47.74 -30.273,62.878 -91.599,62.878 -61.713,0 -91.986,-15.138 -91.986,-62.878 0,-47.35 30.273,-62.487 91.986,-62.487 C -30.273,-62.487 0,-47.35 0,0 m -249.955,0 c 0,84.224 63.653,118.38 158.356,118.38 C 2.718,118.38 66.762,84.224 66.762,0 c 0,-83.837 -64.044,-117.99 -158.361,-117.99 -94.703,0 -158.356,34.153 -158.356,117.99" /></g><path
           id="path36"
           style="fill:#2b92e4;fill-opacity:1;fill-rule:nonzero;stroke:none"
           d="m 1589.019,463.054 h -66.372 v 228.608 h 66.372 z m 0,252.672 h -66.372 v 57.833 h 66.372 z" /><g
           transform="translate(1953.0742,589.583)"
           id="g38"><path
             id="path40"
             style="fill:#2b92e4;fill-opacity:1;fill-rule:nonzero;stroke:none"
             d="m 0,0 -0.777,-126.529 h -66.759 v 101.302 c 0,48.517 -16.302,73.744 -71.026,73.744 -44.637,0 -92.764,-22.9 -113.336,-46.963 v -128.083 h -66.369 v 228.608 h 66.369 V 62.101 c 32.602,25.617 77.625,43.859 133.131,43.859 C -57.834,105.96 -0.777,84.224 0,0" /></g><g
           transform="translate(862.0933,187.8921)"
           id="g42"><path
             id="path44"
             style="fill:#2b92e4;fill-opacity:1;fill-rule:nonzero;stroke:none"
             d="m 0,0 c 0,-28.721 23.288,-41.918 111.781,-41.918 73.358,0 95.481,8.148 95.481,29.498 0,22.509 -15.526,26.39 -103.631,30.662 -118.381,5.431 -165.343,24.063 -165.343,85.001 0,59.77 60.935,78.788 162.626,78.788 102.467,0 164.568,-25.617 164.568,-92.762 h -69.863 c 0,29.884 -29.887,37.26 -102.468,37.26 -68.699,0 -85.001,-6.598 -85.001,-26.781 0,-20.959 16.302,-24.84 95.481,-29.498 107.123,-5.822 173.494,-11.644 173.494,-80.343 0,-72.581 -68.7,-87.328 -169.225,-87.328 -111.393,0 -177.763,19.019 -177.763,97.421 z" /></g><g
           transform="translate(1489.2861,220.8813)"
           id="g46"><path
             id="path48"
             style="fill:#2b92e4;fill-opacity:1;fill-rule:nonzero;stroke:none"
             d="m 0,0 -0.773,-126.529 h -66.761 v 101.302 c 0,48.517 -16.302,73.744 -71.028,73.744 -44.635,0 -92.764,-22.9 -113.334,-46.963 v -128.083 h -66.371 v 310.505 h 66.371 V 62.101 c 32.602,25.617 77.625,43.859 133.129,43.859 C -57.832,105.96 -0.773,84.224 0,0" /></g><g
           transform="translate(1759.7939,183.2339)"
           id="g50"><path
             id="path52"
             style="fill:#2b92e4;fill-opacity:1;fill-rule:nonzero;stroke:none"
             d="m 0,0 c -23.287,7.375 -54.726,13.971 -97.035,13.971 -49.681,0 -79.566,-8.539 -79.566,-31.826 0,-24.063 22.123,-26.004 56.666,-26.004 36.097,0 85.778,11.256 119.935,26.004 z M 66.759,26.391 V -88.882 H 0 v 28.331 c -40.365,-19.792 -85.001,-32.212 -138.949,-32.212 -64.046,0 -104.02,20.569 -104.02,72.19 0,59.384 65.205,78.016 137.785,78.016 39.202,0 75.298,-6.212 105.184,-16.301 0,43.468 -55.894,46.963 -86.941,46.963 -29.886,0 -66.373,-2.717 -113.336,-16.688 l -23.673,48.514 c 46.572,15.137 92.372,23.676 140.112,23.676 95.481,0 149.819,-30.662 150.597,-117.216" /></g><g
           transform="translate(2113.7441,319.0791)"
           id="g54"><path
             id="path56"
             style="fill:#2b92e4;fill-opacity:1;fill-rule:nonzero;stroke:none"
             d="m 0,0 v -55.502 c -21.736,5.435 -39.201,7.762 -58.606,7.762 -37.261,0 -79.956,-8.539 -120.321,-39.978 V -224.727 H -245.3 V 3.881 h 66.373 V -34.934 C -144.774,-4.268 -104.406,7.762 -61.714,7.762 -34.543,7.762 -15.524,3.881 0,0" /></g><g
           transform="translate(2335.7344,229.4204)"
           id="g58"><path
             id="path60"
             style="fill:#2b92e4;fill-opacity:1;fill-rule:nonzero;stroke:none"
             d="M 0,0 148.266,-135.068 H 55.894 l -109.456,99.748 -78.015,-46.963 v -52.785 h -66.368 v 310.505 h 66.368 V -9.316 L 34.934,93.54 h 113.332 z" /></g></g></g></g></svg>