<svg width="34" height="23" viewBox="0 0 34 23" fill="none" xmlns="http://www.w3.org/2000/svg">
<path d="M32.2565 0H1.74363C0.784592 0 0 0.784592 0 1.74357V20.9231C0 21.882 0.784592 22.6668 1.74363 22.6668H32.2565C33.2154 22.6668 34.0002 21.8822 34.0002 20.9231V1.74357C34.0001 0.784592 33.2155 0 32.2565 0ZM31.6022 1.30761L18.003 11.5078C17.7585 11.6938 17.3832 11.8102 17 11.8085C16.6168 11.8102 16.2416 11.6938 15.997 11.5078L2.39787 1.30761H31.6022ZM24.338 12.1808L31.7482 21.3347C31.7557 21.3439 31.7648 21.3509 31.7727 21.3592H2.2274C2.23524 21.3505 2.2444 21.3439 2.25184 21.3347L9.66213 12.1808C9.88918 11.9001 9.84615 11.4886 9.56491 11.261C9.28421 11.034 8.87269 11.077 8.64559 11.3578L1.30768 20.4223V2.12494L15.2128 12.5538C15.7355 12.9431 16.3714 13.1144 16.9999 13.1161C17.6276 13.1148 18.264 12.9435 18.787 12.5538L32.6921 2.12494V20.4222L25.3544 11.3578C25.1273 11.0771 24.7154 11.0339 24.4351 11.261C24.1539 11.488 24.1108 11.9001 24.338 12.1808Z" fill="#1BC768"/>
</svg>
