<svg width="67" height="67" viewBox="0 0 67 67" fill="none" xmlns="http://www.w3.org/2000/svg">
<g clip-path="url(#clip0)">
<path d="M61.7754 55.7527L51.9837 38.5509C52.9761 38.0878 53.5715 37.0293 53.5054 35.8384L52.7776 29.7516L56.9457 25.385C57.872 24.4587 57.9381 22.8709 57.0119 21.7462L52.8438 17.2472L53.7039 11.0943C53.8362 9.77109 52.9099 8.44788 51.5867 8.18324L45.5661 6.99235L42.655 1.63334C42.0596 0.376288 40.6041 -0.152996 39.2808 0.376288H39.2147L33.6572 2.95655L28.232 0.310128C27.6366 -0.0206752 26.9088 -0.0868358 26.2472 0.111646C25.5856 0.310128 25.0563 0.773252 24.7255 1.3687L21.7483 6.7277L15.7277 7.78627C14.3383 8.05092 13.4121 9.30797 13.5444 10.7635L14.2721 16.8503L10.104 21.2169C9.17778 22.1431 9.11162 23.731 10.0379 24.8557L14.206 29.3546L13.3459 35.5076C13.2136 36.6984 13.9413 37.8232 15.0661 38.2863L5.20815 55.7527C4.94351 56.1497 5.00967 56.6789 5.20815 57.0759C5.47279 57.4729 5.86975 57.7375 6.33288 57.7375H16.9186L21.7483 66.1399C22.0129 66.5369 22.4099 66.8015 22.873 66.8015C23.3361 66.8015 23.7993 66.5369 23.9978 66.1399L33.4587 49.9967L42.9197 66.3384C43.1843 66.7354 43.5813 67 44.0444 67C44.5075 67 44.9707 66.7354 45.1691 66.3384L49.9989 57.7375H60.5846C61.0477 57.7375 61.5108 57.4729 61.7093 57.0759C62.0401 56.6789 62.0401 56.1497 61.7754 55.7527ZM22.9392 62.8319L18.8372 55.7527C18.5726 55.3557 18.1756 55.0911 17.7125 55.0911H8.58234L17.7125 38.9479L21.4837 39.6095L24.3947 44.9685C24.9902 46.2256 26.4457 46.7549 27.7689 46.2256H27.8351L30.5477 44.9685L31.8709 47.2841L22.9392 62.8319ZM26.7765 43.8438C26.7103 43.8438 26.7103 43.8438 26.7103 43.8438L23.7993 38.3525C23.4023 37.6909 22.7407 37.1616 21.9468 37.0954L15.86 35.9707L16.7201 29.8839C16.8524 29.09 16.5878 28.2299 16.0585 27.7006L11.9565 23.2017L16.1246 18.8351C16.7201 18.2396 16.9847 17.4457 16.8524 16.6518L16.1246 10.6312C16.1246 10.6312 16.1246 10.565 16.1908 10.4989L22.2114 9.44029C22.9392 9.30797 23.667 8.84484 24.0639 8.11708L27.0411 2.75807L32.4663 5.40449C33.1941 5.80146 34.1203 5.80146 34.8481 5.40449L40.3394 2.89039C40.4056 2.89039 40.4056 2.89039 40.4056 2.89039L43.3166 8.38172C43.7136 9.04332 44.3752 9.57261 45.103 9.63877L51.1236 10.8297L50.2635 16.9164C50.1312 17.7104 50.3958 18.5704 50.9251 19.0997L55.0932 23.5987L50.859 27.9653C50.2635 28.5607 49.9989 29.3546 50.1312 30.1486L50.859 36.2353L44.9045 37.2277C44.1767 37.3601 43.449 37.8232 43.052 38.5509L40.0748 43.91L34.6496 41.2635C33.9218 40.8666 32.9956 40.8666 32.2678 41.2635L26.7765 43.8438ZM49.2711 55.0911C48.808 55.0911 48.3448 55.3557 48.1464 55.7527L44.0444 63.0304L34.7158 46.8872C34.6496 46.6887 34.5834 46.5564 34.4511 46.4241L32.9956 43.8438L33.4587 43.6453L38.8839 46.2917C39.2808 46.4902 39.6778 46.5564 40.0748 46.5564C41.001 46.5564 41.9273 46.0933 42.3904 45.2332L45.3676 39.8742L49.3373 39.1464L58.4013 55.0911H49.2711Z" fill="#4B4B4B"/>
<path d="M46.6908 23.334C46.6908 16.0564 40.7364 10.1019 33.4587 10.1019C26.181 10.1019 20.2266 16.0564 20.2266 23.334C20.2266 30.6117 26.181 36.5662 33.4587 36.5662C40.7364 36.5662 46.6908 30.6117 46.6908 23.334ZM33.4587 33.9197C27.6366 33.9197 22.873 29.1562 22.873 23.334C22.873 17.5119 27.6366 12.7484 33.4587 12.7484C39.2808 12.7484 44.0444 17.5119 44.0444 23.334C44.0444 29.1562 39.2808 33.9197 33.4587 33.9197Z" fill="#4B4B4B"/>
</g>
<defs>
<clipPath id="clip0">
<rect width="67" height="67" fill="white"/>
</clipPath>
</defs>
</svg>
