<svg width="23" height="25" viewBox="0 0 23 25" fill="none" xmlns="http://www.w3.org/2000/svg">
<path d="M4.66082 16.3038C6.93795 19.0258 9.67912 21.169 12.8078 22.6855C13.999 23.25 15.592 23.9197 17.3668 24.0345C17.4769 24.0393 17.5821 24.0441 17.6921 24.0441C18.8833 24.0441 19.8401 23.6327 20.6199 22.7859C20.6247 22.7811 20.6342 22.7716 20.639 22.762C20.9165 22.4271 21.2322 22.1257 21.5623 21.8052C21.7871 21.5899 22.0168 21.3651 22.2368 21.1355C23.2558 20.0735 23.2558 18.7244 22.2273 17.6959L19.3521 14.8207C18.8642 14.3137 18.2806 14.0458 17.6682 14.0458C17.0559 14.0458 16.4675 14.3137 15.9652 14.816L14.2525 16.5286C14.0946 16.4377 13.932 16.3564 13.7789 16.2798C13.5876 16.1842 13.4106 16.0933 13.2527 15.9928C11.6931 15.0025 10.2771 13.7109 8.92327 12.0509C8.23917 11.185 7.77992 10.4578 7.4594 9.71633C7.90908 9.3097 8.33006 8.88394 8.73669 8.46774C8.88021 8.31944 9.02851 8.17114 9.17681 8.02284C9.69347 7.50618 9.97094 6.90819 9.97094 6.30064C9.97094 5.69308 9.69826 5.0951 9.17681 4.57844L7.75121 3.15284C7.58378 2.9854 7.42591 2.82275 7.26326 2.65531C6.94752 2.33001 6.61743 1.99514 6.29213 1.69375C5.79939 1.21058 5.22053 0.957031 4.6082 0.957031C4.00064 0.957031 3.41701 1.21058 2.90513 1.69853L1.11596 3.48771C0.465348 4.13832 0.0969882 4.92766 0.0204459 5.84138C-0.070448 6.98473 0.140043 8.19984 0.685407 9.6685C1.52259 11.9408 2.78553 14.0505 4.66082 16.3038ZM1.18772 5.94184C1.24512 5.30559 1.4891 4.77458 1.94835 4.31532L3.72796 2.53571C4.00543 2.26782 4.3116 2.12908 4.6082 2.12908C4.90001 2.12908 5.19662 2.26782 5.4693 2.54528C5.78982 2.84188 6.0912 3.15284 6.41651 3.48293C6.57916 3.65036 6.7466 3.8178 6.91403 3.99002L8.33963 5.41562C8.63623 5.71222 8.78932 6.0136 8.78932 6.3102C8.78932 6.60681 8.63623 6.90819 8.33963 7.20479C8.19133 7.35309 8.04303 7.50618 7.89473 7.65448C7.44983 8.10416 7.03363 8.52993 6.57438 8.93656C6.56481 8.94613 6.56002 8.95091 6.55046 8.96048C6.15339 9.35754 6.21558 9.73547 6.31126 10.0225C6.31605 10.0369 6.32083 10.0464 6.32561 10.0608C6.69397 10.9458 7.20585 11.7878 8.00476 12.7924C9.43993 14.5624 10.9516 15.9354 12.6164 16.9926C12.8221 17.1266 13.0422 17.2318 13.2479 17.3371C13.4393 17.4327 13.6163 17.5236 13.7741 17.6241C13.7933 17.6337 13.8076 17.6432 13.8268 17.6528C13.9846 17.7341 14.1377 17.7724 14.2908 17.7724C14.6735 17.7724 14.9223 17.5284 15.0036 17.4471L16.7928 15.6579C17.0702 15.3805 17.3716 15.2322 17.6682 15.2322C18.0318 15.2322 18.3284 15.457 18.515 15.6579L21.3997 18.5378C21.9737 19.1119 21.9689 19.7338 21.3853 20.3414C21.1844 20.5566 20.9739 20.7623 20.749 20.9776C20.4142 21.3029 20.0649 21.6378 19.7492 22.0157C19.1991 22.6089 18.5437 22.8864 17.6969 22.8864C17.6156 22.8864 17.5295 22.8816 17.4482 22.8768C15.879 22.7764 14.42 22.164 13.3244 21.6426C10.3489 20.2026 7.73686 18.1599 5.56976 15.567C3.78537 13.4191 2.58461 11.4194 1.79049 9.27622C1.29774 7.96065 1.11117 6.90341 1.18772 5.94184Z" fill="white"/>
</svg>
