<svg width="23" height="25" viewBox="0 0 23 25" fill="none" xmlns="http://www.w3.org/2000/svg">
<path d="M4.66082 16.3033C6.93795 19.0253 9.67912 21.1685 12.8078 22.685C13.999 23.2495 15.592 23.9192 17.3668 24.034C17.4769 24.0388 17.5821 24.0436 17.6921 24.0436C18.8833 24.0436 19.8401 23.6322 20.6199 22.7854C20.6247 22.7806 20.6342 22.7711 20.639 22.7615C20.9165 22.4266 21.2322 22.1253 21.5623 21.8047C21.7871 21.5895 22.0168 21.3646 22.2368 21.135C23.2558 20.073 23.2558 18.7239 22.2273 17.6954L19.3521 14.8203C18.8642 14.3132 18.2806 14.0453 17.6682 14.0453C17.0559 14.0453 16.4675 14.3132 15.9652 14.8155L14.2525 16.5281C14.0946 16.4372 13.932 16.3559 13.7789 16.2793C13.5876 16.1837 13.4106 16.0928 13.2527 15.9923C11.6931 15.002 10.2771 13.7104 8.92327 12.0504C8.23917 11.1845 7.77992 10.4573 7.4594 9.71585C7.90908 9.30922 8.33006 8.88345 8.73669 8.46725C8.88021 8.31895 9.02851 8.17065 9.17681 8.02235C9.69347 7.50569 9.97094 6.9077 9.97094 6.30015C9.97094 5.69259 9.69826 5.09461 9.17681 4.57795L7.75121 3.15235C7.58378 2.98491 7.42591 2.82226 7.26326 2.65482C6.94752 2.32952 6.61743 1.99465 6.29213 1.69326C5.79939 1.21009 5.22053 0.956543 4.6082 0.956543C4.00064 0.956543 3.41701 1.21009 2.90513 1.69805L1.11596 3.48722C0.465348 4.13783 0.0969882 4.92717 0.0204459 5.84089C-0.070448 6.98424 0.140043 8.19935 0.685407 9.66801C1.52259 11.9404 2.78553 14.05 4.66082 16.3033ZM1.18772 5.94136C1.24512 5.3051 1.4891 4.77409 1.94835 4.31483L3.72796 2.53523C4.00543 2.26733 4.3116 2.1286 4.6082 2.1286C4.90001 2.1286 5.19662 2.26733 5.4693 2.54479C5.78982 2.8414 6.0912 3.15235 6.41651 3.48244C6.57916 3.64987 6.7466 3.81731 6.91403 3.98953L8.33963 5.41513C8.63623 5.71173 8.78932 6.01311 8.78932 6.30972C8.78932 6.60632 8.63623 6.9077 8.33963 7.2043C8.19133 7.3526 8.04303 7.50569 7.89473 7.65399C7.44983 8.10367 7.03363 8.52944 6.57438 8.93607C6.56481 8.94564 6.56002 8.95042 6.55046 8.95999C6.15339 9.35705 6.21558 9.73498 6.31126 10.022C6.31605 10.0364 6.32083 10.0459 6.32561 10.0603C6.69397 10.9453 7.20585 11.7873 8.00476 12.7919C9.43993 14.5619 10.9516 15.9349 12.6164 16.9921C12.8221 17.1261 13.0422 17.2313 13.2479 17.3366C13.4393 17.4323 13.6163 17.5232 13.7741 17.6236C13.7933 17.6332 13.8076 17.6428 13.8268 17.6523C13.9846 17.7336 14.1377 17.7719 14.2908 17.7719C14.6735 17.7719 14.9223 17.5279 15.0036 17.4466L16.7928 15.6574C17.0702 15.38 17.3716 15.2317 17.6682 15.2317C18.0318 15.2317 18.3284 15.4565 18.515 15.6574L21.3997 18.5373C21.9737 19.1114 21.9689 19.7333 21.3853 20.3409C21.1844 20.5561 20.9739 20.7618 20.749 20.9771C20.4142 21.3024 20.0649 21.6373 19.7492 22.0152C19.1991 22.6084 18.5437 22.8859 17.6969 22.8859C17.6156 22.8859 17.5295 22.8811 17.4482 22.8763C15.879 22.7759 14.42 22.1635 13.3244 21.6421C10.3489 20.2021 7.73686 18.1594 5.56976 15.5665C3.78537 13.4186 2.58461 11.4189 1.79049 9.27573C1.29774 7.96016 1.11117 6.90292 1.18772 5.94136Z" fill="#1BC768"/>
</svg>
