<svg width="66" height="66" viewBox="0 0 66 66" fill="none" xmlns="http://www.w3.org/2000/svg">
<path d="M63.5787 17.9598L63.5653 17.9464C63.0157 17.4504 62.1712 17.4504 61.6484 17.9732C61.1256 18.496 61.1256 19.3405 61.6484 19.8633C63.8468 22.0617 63.8468 25.6273 61.6484 27.8257C59.45 30.0241 55.8844 30.0241 53.686 27.8257C53.6592 27.7989 53.6458 27.7855 53.619 27.7721C51.6083 24.9571 49.0346 22.5978 46.0721 20.8418C49.1418 13.6033 45.7504 5.2521 38.5118 2.19582C31.2733 -0.860459 22.9221 2.51754 19.8658 9.7561C19.2492 11.2306 18.8739 12.799 18.7666 14.3941C17.3457 13.992 16.2063 13.8043 15.3216 13.8311C13.9007 13.8445 12.8551 14.7293 12.6943 16.0295C12.6005 16.6059 12.6675 17.4504 12.9758 20.1984L13.2573 22.8257C10.6836 24.9169 8.65946 27.3565 7.19835 30.0911L3.31097 30.8552C1.38069 31.2439 0 32.9463 0 34.9034V43.5226C0 45.4931 1.38069 47.1821 3.31097 47.5709L7.21175 48.3484C7.97582 49.8497 8.91415 51.2572 10.0133 52.544C8.56563 56.1365 9.63801 60.2518 12.6407 62.7048C14.4235 64.1525 16.6621 64.9434 18.9543 64.93C21.5682 64.93 24.0883 63.9381 26.0052 62.1552L26.9435 61.2705C30.402 61.7933 33.9408 61.6727 37.359 60.9488L38.6861 62.2223C40.5225 63.9515 42.9622 64.9166 45.4823 64.8898H45.7638C45.7772 64.8898 45.7906 64.8898 45.804 64.8898C48.4313 64.8228 50.9246 63.7236 52.7477 61.8201C55.5627 58.8443 55.8978 54.3671 53.6726 50.855C56.1927 47.343 57.5198 43.3216 57.5198 39.1661V38.1876C57.5198 38.1608 57.5198 38.1339 57.5198 38.1071C57.3991 36.1098 56.8763 34.0455 55.9648 31.9544C58.7128 32.5442 61.5814 31.6997 63.5653 29.7024C66.8092 26.4584 66.8092 21.2037 63.5787 17.9598ZM32.9757 3.73737C39.3429 3.72396 44.5172 8.87138 44.5306 15.2386C44.544 19.0858 42.6271 22.6917 39.4234 24.8364C39.3161 24.9169 39.2089 25.0777 39.1284 25.0777H26.8765C26.8229 25.0777 26.7559 24.9973 26.6888 24.9437C23.646 22.9732 21.7157 19.689 21.4476 16.0831C21.4208 15.7748 21.4208 15.5067 21.4208 15.2654C21.4342 8.9116 26.595 3.75077 32.9757 3.73737ZM51.0721 49.8631C50.8442 50.1312 50.4957 50.7478 50.9112 51.5789C50.9514 51.6593 50.9916 51.7264 51.0453 51.7934C52.9889 54.3269 52.8817 57.7585 50.7906 59.9703C49.4635 61.351 47.6673 62.2089 45.7236 62.2089H45.4689C43.6324 62.2223 41.863 61.5386 40.5225 60.2786L38.7799 58.6164C38.4716 58.3215 38.0561 58.1606 37.6405 58.174C37.5333 58.174 37.4394 58.1874 37.3322 58.2142C33.8872 59.0319 30.3215 59.1392 26.8229 58.5494C26.7425 58.536 26.6754 58.536 26.595 58.536C26.1661 58.5226 25.7639 58.6834 25.4556 58.9783L24.1419 60.225C22.8015 61.4716 21.0723 62.182 19.2492 62.2625C17.4664 62.3563 15.697 61.7799 14.3029 60.6673C12.0777 58.8443 11.394 55.721 12.6675 53.1339C12.8686 52.7987 12.9222 52.3832 12.8149 51.9944C12.7613 51.7532 12.6541 51.5387 12.4932 51.3644C11.2332 49.9837 10.1742 48.4154 9.35651 46.7264C9.28949 46.5923 9.20906 46.4717 9.10182 46.3645C8.84713 46.083 8.51201 45.9087 8.15008 45.8417L3.83376 44.9704C3.16352 44.8363 2.68095 44.2331 2.68095 43.5495V34.9034C2.66754 34.2198 3.15011 33.6165 3.83376 33.4825L8.16349 32.6112C8.52542 32.5442 8.86054 32.3699 9.11523 32.0884C9.22246 31.9812 9.30289 31.8739 9.36992 31.7399C10.7372 29.0053 12.7747 26.5656 15.4155 24.5281C15.4557 24.4879 15.4959 24.4611 15.5361 24.4209C15.8444 24.1126 16.0053 23.697 15.9919 23.2681C15.9919 23.2145 15.9919 23.1742 15.9785 23.1206L15.6299 19.9035C15.5093 18.8713 15.3082 17.0081 15.335 16.4987C15.3484 16.4987 15.3752 16.4987 15.3886 16.4987C15.9248 16.4853 16.957 16.5791 18.8605 17.1957C19.2626 20.1716 20.6031 22.933 22.6808 25.0911H21.4074C20.6701 25.0911 20.0669 25.6943 20.0669 26.4316C20.0669 27.1689 20.6701 27.7721 21.4074 27.7721H44.6378C45.3751 27.7721 45.9783 27.1689 45.9783 26.4316C45.9783 25.6943 45.3751 25.0911 44.6378 25.0911H43.2437C43.8335 24.5147 44.3563 23.8713 44.7987 23.1742C47.8951 25.0509 50.442 27.571 52.1981 30.4664L53.1498 32.3029C54.1284 34.327 54.6914 36.3779 54.8254 38.2546V39.1795C54.8254 42.9999 53.5251 46.6862 51.0721 49.8631Z" fill="white"/>
<path d="M18.5656 32.4637C16.6621 32.4637 15.134 34.0053 15.134 35.8954C15.134 37.7988 16.6755 39.327 18.5656 39.327C20.4556 39.327 21.9972 37.7854 21.9972 35.8954C22.0106 34.0053 20.469 32.4637 18.5656 32.4637ZM18.5656 36.6594C18.15 36.6594 17.8149 36.3243 17.8149 35.9088C17.8149 35.4932 18.15 35.1581 18.5656 35.1581C18.9811 35.1581 19.3162 35.4932 19.3162 35.9088C19.3296 36.3243 18.9945 36.6594 18.5656 36.6594Z" fill="white"/>
<path d="M32.9757 7.14221C28.4851 7.14221 24.8524 10.7749 24.8524 15.2655C24.8658 19.7427 28.4985 23.3754 32.9757 23.3888C37.4663 23.3888 41.0989 19.7561 41.0989 15.2655C41.0989 10.7749 37.4663 7.14221 32.9757 7.14221ZM32.9757 20.7078C29.973 20.7078 27.5333 18.2681 27.5333 15.2655C27.5333 12.2628 29.973 9.82316 32.9757 9.82316C35.9783 9.82316 38.418 12.2628 38.418 15.2655C38.418 18.2681 35.9783 20.7078 32.9757 20.7078Z" fill="white"/>
</svg>
