<svg width="116" height="18" viewBox="0 0 116 18" fill="none" xmlns="http://www.w3.org/2000/svg">
<g clip-path="url(#clip0)">
<path fill-rule="evenodd" clip-rule="evenodd" d="M10.7561 0C12.0588 0 13.2097 0.254041 14.2088 0.762125C15.2078 1.27021 15.981 1.99659 16.5282 2.94126C17.075 3.88567 17.3486 4.98201 17.3491 6.23027C17.3496 7.47853 17.076 8.57026 16.5282 9.50548C15.9818 10.4407 15.2081 11.1626 14.2072 11.6712C13.2063 12.1798 12.0559 12.4337 10.7561 12.4329H7.8535V17.1378H3.9447V9.08952H10.3914C11.3114 9.08952 12.0411 8.83101 12.5804 8.31399C13.1198 7.79697 13.3889 7.10187 13.3879 6.22869C13.3879 5.33711 13.1187 4.63294 12.5804 4.11619C12.0421 3.59943 11.3124 3.34092 10.3914 3.34066H3.9447V0H10.7561ZM31.8646 3.39428V17.1378H28.6071L28.2681 15.4818C27.819 16.0356 27.2602 16.4902 26.6267 16.8172C26.0011 17.1379 25.2366 17.2982 24.3332 17.2982C22.7696 17.2982 21.4926 16.8036 20.5025 15.8142C19.5124 14.8248 19.0173 13.1715 19.0173 10.8543V3.39428H22.6919V10.3997C22.6919 11.6452 22.9048 12.5875 23.3302 13.2207C23.7556 13.8539 24.4117 14.1697 25.2976 14.1697C26.2176 14.1697 26.9299 13.8177 27.4346 13.1138C27.9392 12.4099 28.1912 11.425 28.1904 10.1592V3.39428H31.8646ZM34.0276 3.39428H45.3636V5.96098L38.6662 13.956H45.6763V17.1378H33.7149V14.5699L40.412 6.57565H34.0276V3.39428ZM47.6567 3.39428H58.9928V5.96098L52.2937 13.956H59.3039V17.1378H47.3441V14.5699L54.0415 6.57565H47.6567V3.39428ZM61.1562 0H64.8315V17.1378H61.1573V0H61.1562ZM66.6022 10.2928C66.6022 8.86689 66.8846 7.62362 67.4495 6.56303C68.0144 5.50244 68.8049 4.68249 69.821 4.10318C70.8364 3.52491 72.0135 3.23578 73.3521 3.23578C74.7074 3.23578 75.9017 3.5077 76.9353 4.05153C77.945 4.57239 78.7856 5.36993 79.3588 6.35092C79.9408 7.34054 80.2464 8.50403 80.2578 9.84021C80.264 10.2703 80.2291 10.7001 80.1537 11.1236H70.4333V11.2308C70.4271 12.1074 70.7637 12.9516 71.3713 13.5834C71.9088 14.1533 72.6472 14.4385 73.5863 14.439C74.3333 14.439 74.9546 14.2742 75.4501 13.9446C75.9437 13.6154 76.2709 13.1288 76.4271 12.4858H80.0504C79.9184 13.3765 79.5694 14.2212 79.034 14.9452C78.4966 15.6754 77.7818 16.2522 76.897 16.6702C76.0123 17.0881 74.9947 17.2986 73.8481 17.2986C72.3538 17.2986 71.0638 17.0134 69.978 16.4431C68.8921 15.8727 68.0583 15.0579 67.4763 13.9986C66.8952 12.939 66.6041 11.7046 66.603 10.2952L66.6022 10.2928ZM76.5836 8.66213C76.4621 7.82444 76.1277 7.1781 75.5802 6.72311C75.0326 6.26812 74.342 6.04089 73.5083 6.04141C72.7095 6.04141 72.0362 6.27798 71.4884 6.7511C70.9406 7.22423 70.615 7.86163 70.5114 8.66331L76.5836 8.66213Z" fill="white"/>
<path d="M3.94468 3.3335H0V9.07802H3.94468V3.3335Z" fill="white"/>
<path fill-rule="evenodd" clip-rule="evenodd" d="M83.7001 0.564446H84.8963C85.2145 0.557902 85.529 0.633398 85.8095 0.783661C86.0677 0.923562 86.2797 1.13564 86.4194 1.39399C86.5604 1.6707 86.6339 1.97685 86.6339 2.28741C86.6339 2.59797 86.5604 2.90412 86.4194 3.18083C86.2795 3.43898 86.0676 3.6509 85.8095 3.79076C85.529 3.94103 85.2145 4.01652 84.8963 4.00998H83.7001V0.564446ZM84.8963 3.39452C85.2083 3.39452 85.4503 3.29372 85.6222 3.09212C85.7941 2.89051 85.8803 2.62215 85.8808 2.28702C85.8808 1.95267 85.7946 1.68457 85.6222 1.4827C85.4498 1.28084 85.2078 1.1799 84.8963 1.1799H84.4386V3.39452H84.8963ZM87.2525 0.564446H87.991V4.00998H87.2525V0.564446ZM88.6049 2.28702C88.6049 1.93611 88.6737 1.62858 88.8115 1.36442C88.9435 1.1061 89.1494 0.892842 89.4029 0.751725C89.6607 0.607422 89.963 0.535139 90.3097 0.534876C90.563 0.530869 90.8138 0.584813 91.043 0.692584C91.2531 0.792227 91.4337 0.944812 91.567 1.13535C91.7014 1.32998 91.7852 1.55507 91.8107 1.79023H91.0821C91.0443 1.61023 90.9471 1.44817 90.8061 1.33012C90.6595 1.21376 90.4762 1.1535 90.2892 1.16019C90.1128 1.15609 89.9394 1.20588 89.792 1.30292C89.6476 1.40177 89.5348 1.54017 89.4671 1.70152C89.3889 1.88663 89.3504 2.08609 89.354 2.28702C89.354 2.6253 89.4368 2.89774 89.6024 3.10434C89.768 3.31094 89.9969 3.41424 90.2892 3.41424C90.4917 3.41774 90.69 3.35655 90.8554 3.23957C91.0194 3.1234 91.1177 2.95189 91.1503 2.72505V2.68089H90.2939V2.0954H91.8391V4.00998H91.3265L91.2477 3.5818C91.1389 3.72186 90.9991 3.8347 90.8392 3.91141C90.6533 4 90.4493 4.04389 90.2435 4.03955C89.9428 4.0456 89.6461 3.97071 89.3843 3.8227C89.1365 3.67827 88.9364 3.46446 88.8087 3.20764C88.6679 2.92153 88.5979 2.60581 88.6045 2.28702H88.6049ZM92.5949 0.564446H93.3333V4.00998H92.5949V0.564446ZM93.896 0.564446H96.6228V1.19962H95.6288V4.00998H94.8903V1.19962H93.896V0.564446ZM96.4244 4.00998H97.1877L97.4531 3.25692H98.7625L99.0282 4.00998H99.8207L98.5704 0.564446H97.6845L96.4229 4.00998H96.4244ZM97.6522 2.66276L98.1048 1.35378L98.5626 2.66276H97.6522ZM100.303 4.01156V0.564446H101.042V3.37481H102.41V4.00998L100.303 4.01156ZM85.1029 5.49796C85.3284 5.49344 85.5519 5.54164 85.7555 5.63871C85.9377 5.72636 86.0901 5.86584 86.1935 6.03969C86.2952 6.22485 86.3485 6.43267 86.3485 6.64391C86.3485 6.85514 86.2952 7.06297 86.1935 7.24813C86.0894 7.42083 85.9372 7.55937 85.7555 7.64673C85.5518 7.74338 85.3284 7.79129 85.1029 7.7867H84.4386V8.94349H83.7001V5.49638L85.1029 5.49796ZM84.4386 7.17164H85.0343C85.2083 7.17164 85.3461 7.12406 85.4475 7.02891C85.4989 6.97946 85.539 6.91962 85.5653 6.85339C85.5916 6.78716 85.6035 6.71608 85.6001 6.64489C85.6001 6.48088 85.5493 6.35129 85.4475 6.25614C85.3458 6.16099 85.2081 6.11341 85.0343 6.11341H84.4386V7.17164ZM88.3301 5.49638C88.5586 5.4919 88.7851 5.54006 88.992 5.63714C89.1767 5.72408 89.3317 5.86355 89.4376 6.03811C89.5451 6.22138 89.5997 6.43088 89.5953 6.64331C89.5991 6.84872 89.5444 7.05098 89.4376 7.22644C89.3335 7.39458 89.1828 7.52883 89.0039 7.61283L89.6828 8.94192H88.8659L88.2906 7.78512H87.6653V8.94192H86.9268V5.49638H88.3301ZM87.6653 7.17006H88.2709C88.4447 7.17006 88.5833 7.12249 88.6869 7.02734C88.7388 6.9785 88.7795 6.91907 88.8064 6.85308C88.8333 6.78709 88.8456 6.71608 88.8426 6.64489C88.8426 6.48088 88.791 6.35129 88.6877 6.25614C88.5844 6.16099 88.4457 6.11341 88.2717 6.11341H87.6661V7.17164L87.6653 7.17006ZM93.4816 7.21935C93.486 7.53229 93.4116 7.8413 93.2651 8.11789C93.126 8.37958 92.9162 8.59692 92.6595 8.74517C92.3879 8.89367 92.0832 8.97149 91.7736 8.97149C91.464 8.97149 91.1594 8.89367 90.8877 8.74517C90.6313 8.5968 90.4216 8.37947 90.2825 8.11789C90.1401 7.83983 90.0659 7.53192 90.0659 7.21954C90.0659 6.90716 90.1401 6.59926 90.2825 6.3212C90.4214 6.05942 90.6312 5.84193 90.8877 5.69352C91.1594 5.54502 91.464 5.4672 91.7736 5.4672C92.0832 5.4672 92.3879 5.54502 92.6595 5.69352C92.9163 5.8418 93.1261 6.05931 93.2651 6.3212C93.4117 6.59761 93.4861 6.90652 93.4816 7.21935ZM90.8187 7.21935C90.8153 7.41924 90.8556 7.61747 90.937 7.80011C91.0087 7.96252 91.1247 8.10147 91.2717 8.20108C91.421 8.29608 91.5943 8.34654 91.7712 8.34654C91.9482 8.34654 92.1215 8.29608 92.2708 8.20108C92.4178 8.10147 92.5338 7.96252 92.6055 7.80011C92.6836 7.61644 92.7238 7.41891 92.7238 7.21935C92.7238 7.01978 92.6836 6.82225 92.6055 6.63858C92.5338 6.47617 92.4178 6.33722 92.2708 6.23761C92.1215 6.14261 91.9482 6.09215 91.7712 6.09215C91.5943 6.09215 91.421 6.14261 91.2717 6.23761C91.1247 6.33722 91.0087 6.47617 90.937 6.63858C90.8556 6.82122 90.8153 7.01945 90.8187 7.21935ZM94.0951 5.49638H95.2913C95.6094 5.49005 95.9238 5.56553 96.2044 5.7156C96.4627 5.8555 96.6746 6.06757 96.8144 6.32593C96.9554 6.60263 97.0289 6.90879 97.0289 7.21935C97.0289 7.52991 96.9554 7.83606 96.8144 8.11276C96.6745 8.37092 96.4626 8.58283 96.2044 8.7227C95.9239 8.87296 95.6095 8.94846 95.2913 8.94192H94.0951V5.49638ZM95.2913 8.32685C95.603 8.32685 95.8451 8.22592 96.0175 8.02405C96.19 7.82219 96.2761 7.55395 96.2758 7.21935C96.2758 6.88448 96.1897 6.61624 96.0175 6.41464C95.8454 6.21303 95.6033 6.1121 95.2913 6.11184H94.8355V8.32685H95.2913ZM98.3611 5.49638V7.49494C98.3611 7.77356 98.4152 7.98384 98.5235 8.12577C98.6318 8.26771 98.8027 8.33829 99.0361 8.3375C99.269 8.3375 99.4398 8.26692 99.5486 8.12577C99.6575 7.98462 99.7125 7.77435 99.7138 7.49494V5.49638H100.452V7.45551C100.452 7.94809 100.331 8.32383 100.09 8.58273C99.8487 8.84164 99.4974 8.97109 99.0361 8.97109C98.5735 8.97109 98.2223 8.84151 97.9826 8.58234C97.7429 8.32317 97.6231 7.94743 97.6234 7.45512V5.49638H98.3611ZM101.047 7.21935C101.047 6.86818 101.115 6.56052 101.251 6.29636C101.382 6.03876 101.586 5.82555 101.837 5.68366C102.091 5.53936 102.391 5.46721 102.736 5.46721C102.986 5.46316 103.233 5.51714 103.459 5.62491C103.667 5.72511 103.845 5.87787 103.976 6.06807C104.109 6.26427 104.191 6.49129 104.212 6.72769H103.474C103.441 6.54648 103.346 6.38224 103.206 6.26245C103.062 6.14658 102.881 6.08627 102.696 6.09252C102.421 6.09252 102.203 6.19595 102.042 6.40281C101.881 6.60967 101.801 6.88198 101.801 7.21974C101.801 7.55461 101.881 7.82613 102.042 8.0343C102.203 8.24248 102.421 8.3467 102.696 8.34696C102.881 8.35321 103.062 8.2929 103.206 8.17703C103.346 8.05724 103.441 7.893 103.474 7.71179H104.212C104.191 7.94819 104.11 8.17521 103.976 8.37141C103.845 8.56139 103.667 8.714 103.459 8.81417C103.234 8.92212 102.986 8.97611 102.736 8.97188C102.391 8.97188 102.092 8.8996 101.837 8.75503C101.586 8.61356 101.382 8.40058 101.252 8.14312C101.116 7.88027 101.048 7.57274 101.048 7.22053L101.047 7.21935ZM104.462 5.49638H107.188V6.13234H106.194V8.9427H105.456V6.13234H104.462V5.49638H104.462ZM107.758 5.49638H108.496V8.94192H107.758V5.49638ZM112.526 7.21935C112.53 7.53225 112.456 7.84127 112.31 8.11789C112.17 8.3795 111.961 8.59682 111.704 8.74517C111.432 8.89367 111.128 8.97149 110.818 8.97149C110.508 8.97149 110.204 8.89367 109.932 8.74517C109.676 8.59682 109.466 8.3795 109.327 8.11789C109.184 7.83983 109.11 7.53192 109.11 7.21954C109.11 6.90716 109.184 6.59926 109.327 6.3212C109.466 6.05939 109.675 5.84191 109.932 5.69352C110.204 5.54502 110.508 5.4672 110.818 5.4672C111.128 5.4672 111.432 5.54502 111.704 5.69352C111.961 5.84191 112.17 6.05939 112.31 6.3212C112.456 6.59764 112.53 6.90655 112.526 7.21935ZM109.863 7.21935C109.86 7.41924 109.9 7.61747 109.981 7.80011C110.053 7.96252 110.169 8.10147 110.316 8.20108C110.465 8.29608 110.639 8.34654 110.816 8.34654C110.993 8.34654 111.166 8.29608 111.315 8.20108C111.462 8.1013 111.578 7.9624 111.65 7.80011C111.728 7.61637 111.768 7.41887 111.768 7.21935C111.768 7.01982 111.728 6.82232 111.65 6.63858C111.578 6.47622 111.462 6.3373 111.315 6.23761C111.166 6.14261 110.993 6.09215 110.816 6.09215C110.639 6.09215 110.465 6.14261 110.316 6.23761C110.169 6.33707 110.053 6.47607 109.981 6.63858C109.9 6.82122 109.86 7.01945 109.863 7.21935ZM113.14 8.94192V5.49638H113.81L115.272 7.66724V5.49638H116V8.94192H115.326L113.864 6.77145V8.94192H113.14Z" fill="white"/>
</g>
<defs>
<clipPath id="clip0">
<rect width="116" height="17.2978" fill="white"/>
</clipPath>
</defs>
</svg>
