<svg width="72" height="72" viewBox="0 0 72 72" fill="none" xmlns="http://www.w3.org/2000/svg">
<g clip-path="url(#clip0)">
<path d="M66.223 5.23853H57.0203C56.4379 5.23853 55.9656 5.71074 55.9656 6.29321C55.9656 6.87568 56.4379 7.3479 57.0203 7.3479H66.223C66.8054 7.3479 67.2776 6.87568 67.2776 6.29321C67.2776 5.71074 66.8056 5.23853 66.223 5.23853Z" fill="white"/>
<path d="M51.7944 7.3479H52.9162C53.4987 7.3479 53.9709 6.87568 53.9709 6.29321C53.9709 5.71074 53.4987 5.23853 52.9162 5.23853H51.7944C51.212 5.23853 50.7397 5.71074 50.7397 6.29321C50.7397 6.87568 51.212 7.3479 51.7944 7.3479Z" fill="white"/>
<path d="M51.7944 12.3024H66.2231C66.8056 12.3024 67.2778 11.8302 67.2778 11.2477C67.2778 10.6653 66.8056 10.1931 66.2231 10.1931H51.7944C51.212 10.1931 50.7397 10.6653 50.7397 11.2477C50.7397 11.8302 51.212 12.3024 51.7944 12.3024Z" fill="white"/>
<path d="M55.6092 62.4516C55.6092 58.2386 54.2026 54.1055 51.6407 50.766L51.8362 47.1653C51.9692 44.7142 50.0241 42.6406 47.5502 42.6406H36.0052C35.4741 42.2653 35.1519 41.6557 35.1519 40.9972V38.0524C36.9419 36.8948 38.1987 35.5746 39.1219 34.0035H41.1629C43.5241 34.0035 45.4451 32.0826 45.4451 29.7214V21.8447C45.4451 20.5162 44.6766 19.3418 43.5272 18.7862V13.2583C43.5272 10.7416 41.4799 8.69414 38.9632 8.69414H38.845C38.773 8.69414 38.7145 8.6355 38.7145 8.56364C38.7145 6.04701 36.667 3.99951 34.1504 3.99951H22.9807C17.4362 3.99951 12.9254 8.51034 12.9254 14.0548V18.7861C11.7762 19.3417 11.0076 20.5161 11.0076 21.8445V25.8504C11.0076 27.7246 12.5324 29.2494 14.4066 29.2494H15.7681C16.1205 32.2301 17.5188 34.9523 19.7089 36.8449C20.2227 37.289 20.7541 37.6857 21.3008 38.04V40.9971C21.3008 41.6535 20.9773 42.2633 20.4438 42.6404H8.90283C6.44808 42.6404 4.48284 44.695 4.617 47.1652L4.81247 50.7659C2.25042 54.1055 0.843891 58.2386 0.843891 62.4516V66.4241C0.3195 67.0117 0 67.7859 0 68.6336C0 70.4656 1.49048 71.956 3.32255 71.956H53.1305C54.9626 71.956 56.4531 70.4655 56.4531 68.6336C56.4531 67.7859 56.1336 67.0117 55.6092 66.4242V62.4516ZM53.4998 62.4516V65.332C53.3784 65.3185 53.2554 65.311 53.1305 65.311H50.8513L51.4465 54.3437C52.7815 56.823 53.4998 59.6163 53.4998 62.4516ZM43.2276 21.3297C43.2969 21.4883 43.336 21.6624 43.336 21.8448V25.8507C43.336 26.5618 42.7575 27.1403 42.0463 27.1403H40.7921V23.1645L41.442 22.938C42.2461 22.6579 42.8785 22.0673 43.2276 21.3297ZM36.186 33.5497H33.5392C33.1125 33.5497 32.7653 33.2027 32.7653 32.776C32.7653 32.3494 33.1125 32.0023 33.5392 32.0023H36.186C36.6127 32.0023 36.9598 32.3494 36.9598 32.776C36.9598 33.2027 36.6127 33.5497 36.186 33.5497ZM41.1632 31.8943H40.0971C40.3941 31.0475 40.5991 30.1604 40.7073 29.2497H42.0463C42.5026 29.2497 42.938 29.1587 43.336 28.9949V29.7217C43.336 30.9196 42.3612 31.8943 41.1632 31.8943ZM15.0351 14.055C15.0351 9.67373 18.5996 6.10917 22.9809 6.10917H34.1506C35.5042 6.10917 36.6054 7.2104 36.6054 8.56392C36.6054 9.79903 37.6103 10.8038 38.8453 10.8038H38.9635C40.317 10.8038 41.4181 11.905 41.4181 13.2585V20.0033C41.4181 20.4277 41.1488 20.8066 40.7481 20.9462L38.5317 21.7181C38.4424 21.7491 38.3503 21.6847 38.3503 21.5886L38.3543 17.3974C38.3671 14.3387 35.503 11.671 31.4902 12.96C29.4719 13.6086 26.9743 13.6063 24.9628 12.96C20.9915 11.6837 18.0858 14.3039 18.0986 17.3942L18.1035 21.5889C18.1035 21.6856 18.0093 21.7493 17.9221 21.7181L15.705 20.9461C15.3042 20.8066 15.0349 20.4276 15.0349 20.0032V14.055H15.0351ZM13.1172 25.8507V21.8447C13.1172 21.6624 13.1563 21.4882 13.2256 21.3296C13.5748 22.0673 14.2072 22.6579 15.0116 22.938L15.6614 23.1643V27.1402H14.407C13.6957 27.1403 13.1172 26.5617 13.1172 25.8507ZM17.79 28.0315C17.755 26.6449 17.7765 25.1731 17.7706 23.8257C17.8356 23.8313 17.9007 23.8345 17.9658 23.8345C19.2198 23.8345 20.215 22.8153 20.2129 21.5858L20.208 17.3884C20.2008 15.6759 21.737 14.1387 24.3174 14.9681C26.7632 15.7539 29.6978 15.7515 32.1355 14.9681C34.594 14.1782 36.2526 15.5689 36.245 17.3919L36.2409 21.5861C36.2392 22.8933 37.3566 23.9407 38.6824 23.8257V28.1168C38.6518 29.0284 38.5017 29.918 38.2472 30.764C37.7234 30.2273 36.9934 29.8928 36.186 29.8928H33.5392C31.9494 29.8928 30.656 31.1861 30.656 32.7759C30.656 34.3657 31.9494 35.659 33.5392 35.659H34.8792C32.9311 37.1796 30.7159 37.9724 28.2818 38.0128C22.9572 37.9701 17.9423 34.0365 17.79 28.0315ZM23.4105 40.9974V39.152C24.9351 39.7832 26.5614 40.1103 28.279 40.1224H28.2864C28.2919 40.1224 28.2974 40.1224 28.3029 40.1223C29.9751 40.0963 31.5582 39.7723 33.0429 39.1605V40.9972C33.0429 41.5731 33.1635 42.1305 33.3854 42.6406H23.0669C23.2895 42.1304 23.4105 41.5728 23.4105 40.9974ZM5.00653 54.3437L5.17303 57.4123C5.20467 57.994 5.70291 58.4414 6.28327 58.4083C6.86489 58.3768 7.31081 57.8797 7.27931 57.2981L6.72314 47.0512C6.6555 45.8046 7.64466 44.7501 8.90283 44.7501H47.5504C48.7993 44.7501 49.7981 45.7952 49.7301 47.0512L48.7389 65.3112H32.2003C32.4018 64.1064 32.9444 62.9733 33.7801 62.0449L33.8103 62.0111C37.0028 58.4395 36.0472 52.8545 31.9207 50.5097C30.8618 49.9081 29.517 50.6583 29.517 51.9055V56.691C29.517 56.9104 29.3386 57.0887 29.1192 57.0887H27.3338C27.1145 57.0887 26.936 56.9102 26.936 56.691V51.9055C26.936 50.6607 25.5933 49.9068 24.5323 50.5097C20.394 52.8609 19.4579 58.4481 22.646 62.0146L22.673 62.0449C23.5087 62.9731 24.0512 64.1063 24.2528 65.311H7.71427L7.54509 62.1929C7.51359 61.6113 7.01648 61.1648 6.43486 61.1969C5.85323 61.2284 5.40731 61.7255 5.43881 62.3071L5.6018 65.311H3.32255C3.19767 65.311 3.07463 65.3186 2.95327 65.332V62.4516C2.95327 59.6164 3.67172 56.823 5.00653 54.3437ZM26.3839 65.311C26.1681 63.5829 25.4272 61.9515 24.2409 60.6337L24.2155 60.6052C22.1777 58.3256 22.4506 54.8006 24.8268 52.8564V56.6909C24.8268 58.0733 25.9515 59.1979 27.334 59.1979H29.1194C30.5018 59.1979 31.6266 58.0732 31.6266 56.6909V52.8564C33.987 54.7876 34.2893 58.3102 32.2352 60.6081L32.2124 60.6336C31.026 61.9515 30.2851 63.5829 30.0693 65.311H26.3839ZM53.1305 69.8467H3.32255C2.65359 69.8467 2.10938 69.3025 2.10938 68.6337C2.10938 67.9649 2.65359 67.4205 3.32255 67.4205H53.1305C53.7995 67.4205 54.3437 67.9648 54.3437 68.6337C54.3437 69.3027 53.7995 69.8467 53.1305 69.8467Z" fill="white"/>
<path d="M70.9453 7.26187C71.5278 7.26187 72 6.78965 72 6.20718V4.16587C72 1.89308 70.1509 0.0440063 67.878 0.0440063H50.1394C47.8665 0.0440063 46.0174 1.89308 46.0174 4.16587V13.0376C46.0174 15.3105 47.8665 17.1596 50.1394 17.1596C50.5456 17.1596 50.876 17.4901 50.876 17.8962V23.3827C50.876 24.1751 51.389 24.8496 52.1528 25.0609C52.921 25.2735 53.7057 24.9538 54.1108 24.2782L58.165 17.5174C58.2974 17.2967 58.5395 17.1596 58.7969 17.1596H67.8782C70.1511 17.1596 72.0001 15.3105 72.0001 13.0376V11.1381C72.0001 10.5556 71.5279 10.0834 70.9455 10.0834C70.363 10.0834 69.8908 10.5556 69.8908 11.1381V13.0376C69.8908 14.1474 68.988 15.0502 67.8782 15.0502H58.7967C57.8025 15.0502 56.8672 15.58 56.3559 16.4326L52.9853 22.0534V17.8962C52.9853 16.327 51.7085 15.0502 50.1393 15.0502C49.0295 15.0502 48.1267 14.1474 48.1267 13.0376V4.16587C48.1267 3.05619 49.0295 2.15338 50.1393 2.15338H67.878C68.9878 2.15338 69.8906 3.05619 69.8906 4.16587V6.20718C69.8906 6.78965 70.3629 7.26187 70.9453 7.26187Z" fill="white"/>
</g>
<defs>
<clipPath id="clip0">
<rect width="72" height="72" fill="white"/>
</clipPath>
</defs>
</svg>
